<?xml version="1.0" encoding="UTF-8" standalone="no"?><svg xmlns="http://www.w3.org/2000/svg" xmlns:xlink="http://www.w3.org/1999/xlink" contentScriptType="application/ecmascript" contentStyleType="text/css" height="631px" preserveAspectRatio="none" style="width:765px;height:631px;background:#FEFEFE;" version="1.1" viewBox="0 0 765 631" width="765px" zoomAndPan="magnify"><defs/><g><text fill="#000000" font-family="sans-serif" font-size="18" lengthAdjust="spacingAndGlyphs" textLength="200" x="281.75" y="28.6855">Activité de démonstration</text><rect fill="#FAEBD7" height="584.2266" style="stroke: #FAEBD7; stroke-width: 1.0;" width="222" x="15" y="35.0957"/><ellipse cx="144" cy="72.7363" fill="#000000" rx="10" ry="10" style="stroke: none; stroke-width: 1.0;"/><rect fill="#FEFECE" height="50.1875" rx="12.5" ry="12.5" style="stroke: #A80036; stroke-width: 1.5;" width="178" x="55" y="271.666"/><text fill="#000000" font-family="sans-serif" font-size="12" lengthAdjust="spacingAndGlyphs" textLength="108" x="90" y="294.123">Choisir une FURPS</text><text fill="#000000" font-family="sans-serif" font-size="12" lengthAdjust="spacingAndGlyphs" textLength="63" x="65" y="309.2168">(considérer</text><text fill="#000000" font-family="sans-serif" font-size="12" font-style="italic" lengthAdjust="spacingAndGlyphs" textLength="36" x="131" y="309.2168">Issues</text><text fill="#000000" font-family="sans-serif" font-size="12" lengthAdjust="spacingAndGlyphs" textLength="53" x="170" y="309.2168">existants)</text><rect fill="#FEFECE" height="35.0938" rx="12.5" ry="12.5" style="stroke: #A80036; stroke-width: 1.5;" width="123" x="82.5" y="452.041"/><text fill="#000000" font-family="sans-serif" font-size="12" lengthAdjust="spacingAndGlyphs" textLength="103" x="92.5" y="474.498">Identifier problème</text><polygon fill="#FEFECE" points="94,209.8301,194,209.8301,206,221.8301,194,233.8301,94,233.8301,82,221.8301,94,209.8301" style="stroke: #A80036; stroke-width: 1.5;"/><text fill="#000000" font-family="sans-serif" font-size="11" lengthAdjust="spacingAndGlyphs" textLength="18" x="148" y="245.249">vrai</text><text fill="#000000" font-family="sans-serif" font-size="11" lengthAdjust="spacingAndGlyphs" textLength="100" x="94" y="226.3311">FURPS à démontrer?</text><text fill="#000000" font-family="sans-serif" font-size="11" lengthAdjust="spacingAndGlyphs" textLength="22" x="60" y="219.4131">faux</text><ellipse cx="34" cy="268.8301" fill="#FFFFFF" rx="11" ry="11" style="stroke: #000000; stroke-width: 1.0;"/><ellipse cx="34" cy="268.8301" fill="#000000" rx="6" ry="6" style="stroke: #7F7F7F; stroke-width: 1.0;"/><line style="stroke: #000000; stroke-width: 2.0;" x1="15" x2="15" y1="35.0957" y2="619.3223"/><rect fill="#000000" height="6" rx="2.5" ry="2.5" style="stroke: #000000; stroke-width: 1.0;" width="284" x="243" y="102.7363"/><rect fill="#FEFECE" height="35.0938" rx="12.5" ry="12.5" style="stroke: #A80036; stroke-width: 1.5;" width="111" x="255" y="128.7363"/><text fill="#000000" font-family="sans-serif" font-size="12" lengthAdjust="spacingAndGlyphs" textLength="91" x="265" y="151.1934">Ouvrir exigences</text><rect fill="#FEFECE" height="35.0938" rx="12.5" ry="12.5" style="stroke: #A80036; stroke-width: 1.5;" width="121" x="394" y="128.7363"/><text fill="#000000" font-family="sans-serif" font-size="12" lengthAdjust="spacingAndGlyphs" textLength="101" x="404" y="151.1934">Lancer application</text><rect fill="#000000" height="6" rx="2.5" ry="2.5" style="stroke: #000000; stroke-width: 1.0;" width="284" x="243" y="183.8301"/><rect fill="#FEFECE" height="35.0938" rx="12.5" ry="12.5" style="stroke: #A80036; stroke-width: 1.5;" width="102" x="334" y="341.8535"/><text fill="#000000" font-family="sans-serif" font-size="12" lengthAdjust="spacingAndGlyphs" textLength="82" x="344" y="364.3105">Lancer FURPS</text><rect fill="#FEFECE" height="35.0938" rx="12.5" ry="12.5" style="stroke: #A80036; stroke-width: 1.5;" width="84" x="343" y="507.1348"/><text fill="#000000" font-family="sans-serif" font-size="12" lengthAdjust="spacingAndGlyphs" textLength="31" x="353" y="529.5918">Créer</text><text fill="#000000" font-family="sans-serif" font-size="12" font-style="italic" lengthAdjust="spacingAndGlyphs" textLength="30" x="387" y="529.5918">Issue</text><line style="stroke: #000000; stroke-width: 2.0;" x1="237" x2="237" y1="35.0957" y2="619.3223"/><rect fill="#FAEBD7" height="584.2266" style="stroke: #FAEBD7; stroke-width: 1.0;" width="121" x="531" y="35.0957"/><rect fill="#FEFECE" height="35.0938" rx="12.5" ry="12.5" style="stroke: #A80036; stroke-width: 1.5;" width="111" x="537" y="396.9473"/><text fill="#000000" font-family="sans-serif" font-size="12" lengthAdjust="spacingAndGlyphs" textLength="91" x="547" y="419.4043">Exécuter FURPS</text><line style="stroke: #000000; stroke-width: 2.0;" x1="531" x2="531" y1="35.0957" y2="619.3223"/><rect fill="#FEFECE" height="35.0938" style="stroke: #A80036; stroke-width: 1.5;" width="53" x="659.5" y="562.2285"/><text fill="#000000" font-family="sans-serif" font-size="12" font-style="italic" lengthAdjust="spacingAndGlyphs" textLength="30" x="669.5" y="584.6855">Issue</text><text fill="#000000" font-family="sans-serif" font-size="12" lengthAdjust="spacingAndGlyphs" textLength="0" x="702.5" y="584.6855"/><line style="stroke: #000000; stroke-width: 2.0;" x1="652" x2="652" y1="35.0957" y2="619.3223"/><line style="stroke: #000000; stroke-width: 2.0;" x1="718" x2="718" y1="35.0957" y2="619.3223"/><polygon fill="#A80036" points="735.5,427.0762,739.5,417.0762,743.5,427.0762,739.5,423.0762" style="stroke: #A80036; stroke-width: 1.0;"/><line style="stroke: #A80036; stroke-width: 1.5;" x1="144" x2="144" y1="233.8301" y2="271.666"/><polygon fill="#A80036" points="140,261.666,144,271.666,148,261.666,144,265.666" style="stroke: #A80036; stroke-width: 1.0;"/><line style="stroke: #A80036; stroke-width: 1.5;" x1="82" x2="34" y1="221.8301" y2="221.8301"/><line style="stroke: #A80036; stroke-width: 1.5;" x1="34" x2="34" y1="221.8301" y2="257.8301"/><polygon fill="#A80036" points="30,247.8301,34,257.8301,38,247.8301,34,251.8301" style="stroke: #A80036; stroke-width: 1.0;"/><line style="stroke: #A80036; stroke-width: 1.5;" x1="310.5" x2="310.5" y1="108.7363" y2="128.7363"/><polygon fill="#A80036" points="306.5,118.7363,310.5,128.7363,314.5,118.7363,310.5,122.7363" style="stroke: #A80036; stroke-width: 1.0;"/><line style="stroke: #A80036; stroke-width: 1.5;" x1="454.5" x2="454.5" y1="108.7363" y2="128.7363"/><polygon fill="#A80036" points="450.5,118.7363,454.5,128.7363,458.5,118.7363,454.5,122.7363" style="stroke: #A80036; stroke-width: 1.0;"/><line style="stroke: #A80036; stroke-width: 1.5;" x1="310.5" x2="310.5" y1="163.8301" y2="183.8301"/><polygon fill="#A80036" points="306.5,173.8301,310.5,183.8301,314.5,173.8301,310.5,177.8301" style="stroke: #A80036; stroke-width: 1.0;"/><line style="stroke: #A80036; stroke-width: 1.5;" x1="454.5" x2="454.5" y1="163.8301" y2="183.8301"/><polygon fill="#A80036" points="450.5,173.8301,454.5,183.8301,458.5,173.8301,454.5,177.8301" style="stroke: #A80036; stroke-width: 1.0;"/><line style="stroke: #A80036; stroke-width: 1.5;" x1="144" x2="144" y1="82.7363" y2="87.7363"/><line style="stroke: #A80036; stroke-width: 1.5;" x1="144" x2="385" y1="87.7363" y2="87.7363"/><line style="stroke: #A80036; stroke-width: 1.5;" x1="385" x2="385" y1="87.7363" y2="102.7363"/><polygon fill="#A80036" points="381,92.7363,385,102.7363,389,92.7363,385,96.7363" style="stroke: #A80036; stroke-width: 1.0;"/><line style="stroke: #A80036; stroke-width: 1.5;" x1="144" x2="144" y1="321.8535" y2="326.8535"/><line style="stroke: #A80036; stroke-width: 1.5;" x1="144" x2="385" y1="326.8535" y2="326.8535"/><line style="stroke: #A80036; stroke-width: 1.5;" x1="385" x2="385" y1="326.8535" y2="341.8535"/><polygon fill="#A80036" points="381,331.8535,385,341.8535,389,331.8535,385,335.8535" style="stroke: #A80036; stroke-width: 1.0;"/><line style="stroke: #A80036; stroke-width: 1.5;" x1="385" x2="385" y1="376.9473" y2="381.9473"/><line style="stroke: #A80036; stroke-width: 1.5;" x1="385" x2="592.5" y1="381.9473" y2="381.9473"/><line style="stroke: #A80036; stroke-width: 1.5;" x1="592.5" x2="592.5" y1="381.9473" y2="396.9473"/><polygon fill="#A80036" points="588.5,386.9473,592.5,396.9473,596.5,386.9473,592.5,390.9473" style="stroke: #A80036; stroke-width: 1.0;"/><line style="stroke: #A80036; stroke-width: 1.5;" x1="592.5" x2="592.5" y1="432.041" y2="437.041"/><line style="stroke: #A80036; stroke-width: 1.5;" x1="592.5" x2="144" y1="437.041" y2="437.041"/><line style="stroke: #A80036; stroke-width: 1.5;" x1="144" x2="144" y1="437.041" y2="452.041"/><polygon fill="#A80036" points="140,442.041,144,452.041,148,442.041,144,446.041" style="stroke: #A80036; stroke-width: 1.0;"/><line style="stroke: #A80036; stroke-width: 1.5;" x1="144" x2="144" y1="487.1348" y2="492.1348"/><line style="stroke: #A80036; stroke-width: 1.5;" x1="144" x2="385" y1="492.1348" y2="492.1348"/><line style="stroke: #A80036; stroke-width: 1.5;" x1="385" x2="385" y1="492.1348" y2="507.1348"/><polygon fill="#A80036" points="381,497.1348,385,507.1348,389,497.1348,385,501.1348" style="stroke: #A80036; stroke-width: 1.0;"/><line style="stroke: #A80036; stroke-width: 1.5;" x1="385" x2="385" y1="542.2285" y2="547.2285"/><line style="stroke: #A80036; stroke-width: 1.5;" x1="385" x2="686" y1="547.2285" y2="547.2285"/><line style="stroke: #A80036; stroke-width: 1.5;" x1="686" x2="686" y1="547.2285" y2="562.2285"/><polygon fill="#A80036" points="682,552.2285,686,562.2285,690,552.2285,686,556.2285" style="stroke: #A80036; stroke-width: 1.0;"/><line style="stroke: #A80036; stroke-width: 1.5;" x1="686" x2="686" y1="597.3223" y2="607.3223"/><line style="stroke: #A80036; stroke-width: 1.5;" x1="686" x2="739.5" y1="607.3223" y2="607.3223"/><line style="stroke: #A80036; stroke-width: 1.5;" x1="739.5" x2="739.5" y1="221.8301" y2="607.3223"/><line style="stroke: #A80036; stroke-width: 1.5;" x1="739.5" x2="206" y1="221.8301" y2="221.8301"/><polygon fill="#A80036" points="216,217.8301,206,221.8301,216,225.8301,212,221.8301" style="stroke: #A80036; stroke-width: 1.0;"/><line style="stroke: #A80036; stroke-width: 1.5;" x1="385" x2="385" y1="189.8301" y2="194.8301"/><line style="stroke: #A80036; stroke-width: 1.5;" x1="385" x2="144" y1="194.8301" y2="194.8301"/><line style="stroke: #A80036; stroke-width: 1.5;" x1="144" x2="144" y1="194.8301" y2="209.8301"/><polygon fill="#A80036" points="140,199.8301,144,209.8301,148,199.8301,144,203.8301" style="stroke: #A80036; stroke-width: 1.0;"/><text fill="#000000" font-family="sans-serif" font-size="18" lengthAdjust="spacingAndGlyphs" textLength="201" x="25.5" y="53.7813">Auxiliaire d'enseignement</text><text fill="#000000" font-family="sans-serif" font-size="18" lengthAdjust="spacingAndGlyphs" textLength="56" x="356" y="53.7813">Équipe</text><text fill="#000000" font-family="sans-serif" font-size="18" lengthAdjust="spacingAndGlyphs" textLength="37" x="573" y="53.7813">SGA</text><text fill="#000000" font-family="sans-serif" font-size="18" lengthAdjust="spacingAndGlyphs" textLength="56" x="657" y="53.7813">GitHub</text><!--MD5=[3230177d246f900aa50b01c55dfd2e40]
@startuml activite-demonstration
title Activité de démonstration
skinparam style strictuml
skinparam DefaultTextAlignment center
skinparam BackgroundColor #fefefe
|#AntiqueWhite|Auxiliaire d'enseignement|
start
|Équipe|
fork
:Ouvrir exigences;
fork again
:Lancer application;
end fork
|Auxiliaire d'enseignement|
while (FURPS à démontrer?) is (vrai)
:Choisir une FURPS
(considérer //Issues// existants);
|Équipe|
:Lancer FURPS;
|#AntiqueWhite|SGA|
:Exécuter FURPS;
|Auxiliaire d'enseignement|
:Identifier problème;
|Équipe|
:Créer //Issue//;
|GitHub|
://Issue// ]
endwhile (faux)
|Auxiliaire d'enseignement|
stop
@enduml

PlantUML version 1.2020.15(Sun Jun 28 07:39:45 EDT 2020)
(GPL source distribution)
Java Runtime: OpenJDK Runtime Environment
JVM: OpenJDK 64-Bit Server VM
Default Encoding: Cp1252
Language: en
Country: CA
--></g></svg>