<?xml version="1.0" encoding="UTF-8" standalone="no"?><svg xmlns="http://www.w3.org/2000/svg" xmlns:xlink="http://www.w3.org/1999/xlink" contentScriptType="application/ecmascript" contentStyleType="text/css" height="900px" preserveAspectRatio="none" style="width:925px;height:900px;background:#FEFEFE;" version="1.1" viewBox="0 0 925 900" width="925px" zoomAndPan="magnify"><defs/><g><text fill="#000000" font-family="sans-serif" font-size="18" lengthAdjust="spacing" textLength="291" x="316.25" y="26.708">Évaluation de la démonstration</text><rect fill="#FAEBD7" height="854.4526" style="stroke:#FAEBD7;stroke-width:1.0;" width="256.5" x="15" y="33.6982"/><ellipse cx="152" cy="69.6514" fill="#000000" rx="10" ry="10" style="stroke:none;stroke-width:1.0;"/><rect fill="#FEFECE" height="47.9375" rx="12.5" ry="12.5" style="stroke:#A80036;stroke-width:1.5;" width="195" x="54.5" y="276.9087"/><text fill="#000000" font-family="sans-serif" font-size="12" lengthAdjust="spacing" textLength="141" x="81.5" y="298.0474">Choisir objectif (FURPS)</text><text fill="#000000" font-family="sans-serif" font-size="12" lengthAdjust="spacing" textLength="71" x="64.5" y="312.0161">(considérer</text><text fill="#000000" font-family="sans-serif" font-size="12" font-style="italic" lengthAdjust="spacing" textLength="37" x="139.5" y="312.0161">Issues</text><text fill="#000000" font-family="sans-serif" font-size="12" lengthAdjust="spacing" textLength="59" x="180.5" y="312.0161">existants)</text><rect fill="#FEFECE" height="61.9063" rx="12.5" ry="12.5" style="stroke:#A80036;stroke-width:1.5;" width="212" x="46" y="464.4634"/><text fill="#000000" font-family="sans-serif" font-size="12" lengthAdjust="spacing" textLength="192" x="56" y="485.6021">Identifier problème(s) selon les</text><text fill="#000000" font-family="sans-serif" font-size="12" font-weight="bold" lengthAdjust="spacing" textLength="152" x="64.5" y="499.5708">critères d'évaluation</text><text fill="#000000" font-family="sans-serif" font-size="12" lengthAdjust="spacing" textLength="15" x="220.5" y="499.5708">du</text><text fill="#000000" font-family="sans-serif" font-size="12" lengthAdjust="spacing" textLength="191" x="56.5" y="513.5396">plan d'itération (le cas échéant)</text><polygon fill="#FEFECE" points="59.5,219.5889,244.5,219.5889,256.5,232.3936,244.5,245.1982,59.5,245.1982,47.5,232.3936,59.5,219.5889" style="stroke:#A80036;stroke-width:1.5;"/><text fill="#000000" font-family="sans-serif" font-size="11" lengthAdjust="spacing" textLength="21" x="156" y="255.4087">vrai</text><text fill="#000000" font-family="sans-serif" font-size="11" lengthAdjust="spacing" textLength="185" x="59.5" y="229.7993">Reste des objectifs à démontrer</text><text fill="#000000" font-family="sans-serif" font-size="11" lengthAdjust="spacing" textLength="149" x="77.5" y="242.604">(selon le plan d'itération)?</text><text fill="#000000" font-family="sans-serif" font-size="11" lengthAdjust="spacing" textLength="25" x="22.5" y="229.7993">faux</text><rect fill="#FEFECE" height="33.9688" rx="12.5" ry="12.5" style="stroke:#A80036;stroke-width:1.5;" width="182" x="61" y="676.3071"/><text fill="#000000" font-family="sans-serif" font-size="12" lengthAdjust="spacing" textLength="162" x="71" y="697.4458">Annoncer la fin de la démo</text><line style="stroke:#000000;stroke-width:2.0;" x1="15" x2="15" y1="33.6982" y2="888.1509"/><rect fill="#000000" height="6" rx="2.5" ry="2.5" style="stroke:#000000;stroke-width:1.0;" width="355" x="277.5" y="99.6514"/><rect fill="#FEFECE" height="47.9375" rx="12.5" ry="12.5" style="stroke:#A80036;stroke-width:1.5;" width="83" x="289.5" y="125.6514"/><text fill="#000000" font-family="sans-serif" font-size="12" lengthAdjust="spacing" textLength="37" x="312.5" y="146.79">Ouvrir</text><text fill="#000000" font-family="sans-serif" font-size="12" lengthAdjust="spacing" textLength="63" x="299.5" y="160.7588">exigences</text><rect fill="#FEFECE" height="47.9375" rx="12.5" ry="12.5" style="stroke:#A80036;stroke-width:1.5;" width="107" x="400.5" y="125.6514"/><text fill="#000000" font-family="sans-serif" font-size="12" lengthAdjust="spacing" textLength="37" x="435.5" y="146.79">Ouvrir</text><text fill="#000000" font-family="sans-serif" font-size="12" lengthAdjust="spacing" textLength="87" x="410.5" y="160.7588">Plan d'itération</text><rect fill="#FEFECE" height="47.9375" rx="12.5" ry="12.5" style="stroke:#A80036;stroke-width:1.5;" width="85" x="535.5" y="125.6514"/><text fill="#000000" font-family="sans-serif" font-size="12" lengthAdjust="spacing" textLength="40" x="558" y="146.79">Lancer</text><text fill="#000000" font-family="sans-serif" font-size="12" lengthAdjust="spacing" textLength="65" x="545.5" y="160.7588">application</text><rect fill="#000000" height="6" rx="2.5" ry="2.5" style="stroke:#000000;stroke-width:1.0;" width="355" x="277.5" y="193.5889"/><rect fill="#FEFECE" height="33.9688" rx="12.5" ry="12.5" style="stroke:#A80036;stroke-width:1.5;" width="101" x="404.5" y="344.8462"/><text fill="#000000" font-family="sans-serif" font-size="12" lengthAdjust="spacing" textLength="81" x="414.5" y="365.9849">Lancer FURPS</text><rect fill="#FEFECE" height="33.9688" rx="12.5" ry="12.5" style="stroke:#A80036;stroke-width:1.5;" width="89" x="410.5" y="546.3696"/><text fill="#000000" font-family="sans-serif" font-size="12" lengthAdjust="spacing" textLength="34" x="420.5" y="567.5083">Créer</text><text fill="#000000" font-family="sans-serif" font-size="12" font-style="italic" lengthAdjust="spacing" textLength="31" x="458.5" y="567.5083">Issue</text><rect fill="#FEFECE" height="47.9375" rx="12.5" ry="12.5" style="stroke:#A80036;stroke-width:1.5;" width="211" x="349.5" y="730.2759"/><text fill="#000000" font-family="sans-serif" font-size="12" lengthAdjust="spacing" textLength="111" x="359.5" y="751.4146">Compléter section</text><text fill="#000000" font-family="sans-serif" font-size="12" font-weight="bold" lengthAdjust="spacing" textLength="76" x="474.5" y="751.4146">Évaluation</text><text fill="#000000" font-family="sans-serif" font-size="12" lengthAdjust="spacing" textLength="108" x="401" y="765.3833">du plan d'itération</text><line style="stroke:#000000;stroke-width:2.0;" x1="271.5" x2="271.5" y1="33.6982" y2="888.1509"/><rect fill="#FAEBD7" height="854.4526" style="stroke:#FAEBD7;stroke-width:1.0;" width="124" x="636.5" y="33.6982"/><rect fill="#FEFECE" height="33.9688" rx="12.5" ry="12.5" style="stroke:#A80036;stroke-width:1.5;" width="114" x="642.5" y="398.8149"/><text fill="#000000" font-family="sans-serif" font-size="12" lengthAdjust="spacing" textLength="94" x="652.5" y="419.9536">Exécuter FURPS</text><line style="stroke:#000000;stroke-width:2.0;" x1="636.5" x2="636.5" y1="33.6982" y2="888.1509"/><rect fill="#FEFECE" height="33.9688" style="stroke:#A80036;stroke-width:1.5;" width="55" x="792.5" y="600.3384"/><text fill="#000000" font-family="sans-serif" font-size="12" font-style="italic" lengthAdjust="spacing" textLength="31" x="802.5" y="621.4771">Issue</text><text fill="#000000" font-family="sans-serif" font-size="12" lengthAdjust="spacing" textLength="0" x="837.5" y="621.4771"/><rect fill="#FEFECE" height="47.9375" style="stroke:#A80036;stroke-width:1.5;" width="107" x="766.5" y="798.2134"/><text fill="#000000" font-family="sans-serif" font-size="12" lengthAdjust="spacing" textLength="87" x="776.5" y="819.3521">Plan d'itération</text><text fill="#000000" font-family="sans-serif" font-size="12" lengthAdjust="spacing" textLength="63" x="788.5" y="833.3208">(actualisé)</text><ellipse cx="820" cy="877.1509" fill="#FEFEFE" rx="11" ry="11" style="stroke:#000000;stroke-width:1.0;"/><ellipse cx="820" cy="877.1509" fill="#000000" rx="6" ry="6" style="stroke:#7F7F7F;stroke-width:1.0;"/><line style="stroke:#000000;stroke-width:2.0;" x1="760.5" x2="760.5" y1="33.6982" y2="888.1509"/><line style="stroke:#000000;stroke-width:2.0;" x1="877.5" x2="877.5" y1="33.6982" y2="888.1509"/><polygon fill="#A80036" points="895.5,442.4634,899.5,432.4634,903.5,442.4634,899.5,438.4634" style="stroke:#A80036;stroke-width:1.0;"/><line style="stroke:#A80036;stroke-width:1.5;" x1="152" x2="152" y1="245.1982" y2="276.9087"/><polygon fill="#A80036" points="148,266.9087,152,276.9087,156,266.9087,152,270.9087" style="stroke:#A80036;stroke-width:1.0;"/><line style="stroke:#A80036;stroke-width:1.5;" x1="47.5" x2="34" y1="232.3936" y2="232.3936"/><polygon fill="#A80036" points="30,434.4634,34,444.4634,38,434.4634,34,438.4634" style="stroke:#A80036;stroke-width:1.5;"/><line style="stroke:#A80036;stroke-width:1.5;" x1="34" x2="34" y1="232.3936" y2="656.3071"/><line style="stroke:#A80036;stroke-width:1.5;" x1="34" x2="152" y1="656.3071" y2="656.3071"/><line style="stroke:#A80036;stroke-width:1.5;" x1="152" x2="152" y1="656.3071" y2="676.3071"/><polygon fill="#A80036" points="148,666.3071,152,676.3071,156,666.3071,152,670.3071" style="stroke:#A80036;stroke-width:1.0;"/><line style="stroke:#A80036;stroke-width:1.5;" x1="331" x2="331" y1="105.6514" y2="125.6514"/><polygon fill="#A80036" points="327,115.6514,331,125.6514,335,115.6514,331,119.6514" style="stroke:#A80036;stroke-width:1.0;"/><line style="stroke:#A80036;stroke-width:1.5;" x1="454" x2="454" y1="105.6514" y2="125.6514"/><polygon fill="#A80036" points="450,115.6514,454,125.6514,458,115.6514,454,119.6514" style="stroke:#A80036;stroke-width:1.0;"/><line style="stroke:#A80036;stroke-width:1.5;" x1="578" x2="578" y1="105.6514" y2="125.6514"/><polygon fill="#A80036" points="574,115.6514,578,125.6514,582,115.6514,578,119.6514" style="stroke:#A80036;stroke-width:1.0;"/><line style="stroke:#A80036;stroke-width:1.5;" x1="331" x2="331" y1="173.5889" y2="193.5889"/><polygon fill="#A80036" points="327,183.5889,331,193.5889,335,183.5889,331,187.5889" style="stroke:#A80036;stroke-width:1.0;"/><line style="stroke:#A80036;stroke-width:1.5;" x1="454" x2="454" y1="173.5889" y2="193.5889"/><polygon fill="#A80036" points="450,183.5889,454,193.5889,458,183.5889,454,187.5889" style="stroke:#A80036;stroke-width:1.0;"/><line style="stroke:#A80036;stroke-width:1.5;" x1="578" x2="578" y1="173.5889" y2="193.5889"/><polygon fill="#A80036" points="574,183.5889,578,193.5889,582,183.5889,578,187.5889" style="stroke:#A80036;stroke-width:1.0;"/><line style="stroke:#A80036;stroke-width:1.5;" x1="820" x2="820" y1="846.1509" y2="866.1509"/><polygon fill="#A80036" points="816,856.1509,820,866.1509,824,856.1509,820,860.1509" style="stroke:#A80036;stroke-width:1.0;"/><line style="stroke:#A80036;stroke-width:1.5;" x1="152" x2="152" y1="79.6514" y2="84.6514"/><line style="stroke:#A80036;stroke-width:1.5;" x1="152" x2="455" y1="84.6514" y2="84.6514"/><line style="stroke:#A80036;stroke-width:1.5;" x1="455" x2="455" y1="84.6514" y2="99.6514"/><polygon fill="#A80036" points="451,89.6514,455,99.6514,459,89.6514,455,93.6514" style="stroke:#A80036;stroke-width:1.0;"/><line style="stroke:#A80036;stroke-width:1.5;" x1="152" x2="152" y1="324.8462" y2="329.8462"/><line style="stroke:#A80036;stroke-width:1.5;" x1="152" x2="455" y1="329.8462" y2="329.8462"/><line style="stroke:#A80036;stroke-width:1.5;" x1="455" x2="455" y1="329.8462" y2="344.8462"/><polygon fill="#A80036" points="451,334.8462,455,344.8462,459,334.8462,455,338.8462" style="stroke:#A80036;stroke-width:1.0;"/><line style="stroke:#A80036;stroke-width:1.5;" x1="455" x2="455" y1="378.8149" y2="383.8149"/><line style="stroke:#A80036;stroke-width:1.5;" x1="455" x2="699.5" y1="383.8149" y2="383.8149"/><line style="stroke:#A80036;stroke-width:1.5;" x1="699.5" x2="699.5" y1="383.8149" y2="398.8149"/><polygon fill="#A80036" points="695.5,388.8149,699.5,398.8149,703.5,388.8149,699.5,392.8149" style="stroke:#A80036;stroke-width:1.0;"/><line style="stroke:#A80036;stroke-width:1.5;" x1="699.5" x2="699.5" y1="432.7837" y2="449.4634"/><line style="stroke:#A80036;stroke-width:1.5;" x1="699.5" x2="152" y1="449.4634" y2="449.4634"/><line style="stroke:#A80036;stroke-width:1.5;" x1="152" x2="152" y1="449.4634" y2="464.4634"/><polygon fill="#A80036" points="148,454.4634,152,464.4634,156,454.4634,152,458.4634" style="stroke:#A80036;stroke-width:1.0;"/><line style="stroke:#A80036;stroke-width:1.5;" x1="152" x2="152" y1="526.3696" y2="531.3696"/><line style="stroke:#A80036;stroke-width:1.5;" x1="152" x2="455" y1="531.3696" y2="531.3696"/><line style="stroke:#A80036;stroke-width:1.5;" x1="455" x2="455" y1="531.3696" y2="546.3696"/><polygon fill="#A80036" points="451,536.3696,455,546.3696,459,536.3696,455,540.3696" style="stroke:#A80036;stroke-width:1.0;"/><line style="stroke:#A80036;stroke-width:1.5;" x1="455" x2="455" y1="580.3384" y2="585.3384"/><line style="stroke:#A80036;stroke-width:1.5;" x1="455" x2="820" y1="585.3384" y2="585.3384"/><line style="stroke:#A80036;stroke-width:1.5;" x1="820" x2="820" y1="585.3384" y2="600.3384"/><polygon fill="#A80036" points="816,590.3384,820,600.3384,824,590.3384,820,594.3384" style="stroke:#A80036;stroke-width:1.0;"/><line style="stroke:#A80036;stroke-width:1.5;" x1="820" x2="820" y1="634.3071" y2="644.3071"/><line style="stroke:#A80036;stroke-width:1.5;" x1="820" x2="899.5" y1="644.3071" y2="644.3071"/><line style="stroke:#A80036;stroke-width:1.5;" x1="899.5" x2="899.5" y1="232.3936" y2="644.3071"/><line style="stroke:#A80036;stroke-width:1.5;" x1="899.5" x2="256.5" y1="232.3936" y2="232.3936"/><polygon fill="#A80036" points="266.5,228.3936,256.5,232.3936,266.5,236.3936,262.5,232.3936" style="stroke:#A80036;stroke-width:1.0;"/><line style="stroke:#A80036;stroke-width:1.5;" x1="455" x2="455" y1="199.5889" y2="204.5889"/><line style="stroke:#A80036;stroke-width:1.5;" x1="455" x2="152" y1="204.5889" y2="204.5889"/><line style="stroke:#A80036;stroke-width:1.5;" x1="152" x2="152" y1="204.5889" y2="219.5889"/><polygon fill="#A80036" points="148,209.5889,152,219.5889,156,209.5889,152,213.5889" style="stroke:#A80036;stroke-width:1.0;"/><line style="stroke:#A80036;stroke-width:1.5;" x1="152" x2="152" y1="710.2759" y2="715.2759"/><line style="stroke:#A80036;stroke-width:1.5;" x1="152" x2="455" y1="715.2759" y2="715.2759"/><line style="stroke:#A80036;stroke-width:1.5;" x1="455" x2="455" y1="715.2759" y2="730.2759"/><polygon fill="#A80036" points="451,720.2759,455,730.2759,459,720.2759,455,724.2759" style="stroke:#A80036;stroke-width:1.0;"/><line style="stroke:#A80036;stroke-width:1.5;" x1="455" x2="455" y1="778.2134" y2="783.2134"/><line style="stroke:#A80036;stroke-width:1.5;" x1="455" x2="820" y1="783.2134" y2="783.2134"/><line style="stroke:#A80036;stroke-width:1.5;" x1="820" x2="820" y1="783.2134" y2="798.2134"/><polygon fill="#A80036" points="816,788.2134,820,798.2134,824,788.2134,820,792.2134" style="stroke:#A80036;stroke-width:1.0;"/><text fill="#000000" font-family="sans-serif" font-size="18" lengthAdjust="spacing" textLength="240" x="23.25" y="50.4063">Auxiliaire d'enseignement</text><text fill="#000000" font-family="sans-serif" font-size="18" lengthAdjust="spacing" textLength="63" x="422.5" y="50.4063">Équipe</text><text fill="#000000" font-family="sans-serif" font-size="18" lengthAdjust="spacing" textLength="37" x="680" y="50.4063">SGA</text><text fill="#000000" font-family="sans-serif" font-size="18" lengthAdjust="spacing" textLength="65" x="786.5" y="50.4063">GitHub</text><!--MD5=[f5db6d361608c25f138ba9b73614e689]
@startuml
title Évaluation de la démonstration
skinparam style strictuml
skinparam DefaultTextAlignment center
skinparam BackgroundColor #fefefe
|#AntiqueWhite|Auxiliaire d'enseignement|
start
|Équipe|
fork
:Ouvrir
exigences;
fork again
:Ouvrir
Plan d'itération;
fork again
:Lancer
application;
end fork
|Auxiliaire d'enseignement|
while (Reste des objectifs à démontrer\n(selon le plan d'itération)?) is (vrai)
:Choisir objectif (FURPS)
(considérer //Issues// existants);
|Équipe|
:Lancer FURPS;
|#AntiqueWhite|SGA|
:Exécuter FURPS;
|Auxiliaire d'enseignement|
:Identifier problème(s) selon les
**critères d'évaluation** du 
plan d'itération (le cas échéant);
|Équipe|
:Créer //Issue//;
|GitHub|
://Issue// ]
endwhile (faux)
|Auxiliaire d'enseignement|
:Annoncer la fin de la démo;
|Équipe|
:Compléter section **Évaluation**
du plan d'itération;
|GitHub|
:Plan d'itération
(actualisé)]
stop
@enduml

PlantUML version 1.2021.10(Mon Aug 30 13:43:48 UTC 2021)
(GPL source distribution)
Java Runtime: Java(TM) SE Runtime Environment
JVM: Java HotSpot(TM) 64-Bit Server VM
Default Encoding: UTF-8
Language: en
Country: US
--></g></svg>