<?xml version="1.0" encoding="UTF-8" standalone="no"?><svg xmlns="http://www.w3.org/2000/svg" xmlns:xlink="http://www.w3.org/1999/xlink" contentScriptType="application/ecmascript" contentStyleType="text/css" height="754px" preserveAspectRatio="none" style="width:483px;height:754px;" version="1.1" viewBox="0 0 483 754" width="483px" zoomAndPan="magnify"><defs/><g><text fill="#000000" font-family="sans-serif" font-size="18" lengthAdjust="spacingAndGlyphs" textLength="393" x="44.25" y="28.6855">Évaluation de l'implémentation (dernière itération)</text><rect fill="#FAEBD7" height="707.6846" style="stroke: #FAEBD7; stroke-width: 1.0;" width="236" x="15" y="35.0957"/><ellipse cx="135" cy="72.7363" fill="#000000" rx="10" ry="10" style="stroke: none; stroke-width: 1.0;"/><rect fill="#FEFECE" height="35.0938" rx="12.5" ry="12.5" style="stroke: #A80036; stroke-width: 1.5;" width="206" x="32" y="102.7363"/><text fill="#000000" font-family="sans-serif" font-size="12" lengthAdjust="spacingAndGlyphs" textLength="186" x="42" y="125.1934">Ouvrir code et rapport de l'itération</text><rect fill="#FEFECE" height="50.1875" rx="12.5" ry="12.5" style="stroke: #A80036; stroke-width: 1.5;" width="224" x="23" y="157.8301"/><text fill="#000000" font-family="sans-serif" font-size="12" lengthAdjust="spacingAndGlyphs" textLength="204" x="33" y="180.2871">Vérifier correspondance code et MDD</text><text fill="#000000" font-family="sans-serif" font-size="12" lengthAdjust="spacingAndGlyphs" textLength="149" x="60.5" y="195.3809">(écart des représentations)</text><rect fill="#FEFECE" height="50.1875" rx="12.5" ry="12.5" style="stroke: #A80036; stroke-width: 1.5;" width="178" x="46" y="284.9365"/><text fill="#000000" font-family="sans-serif" font-size="12" lengthAdjust="spacingAndGlyphs" textLength="103" x="83.5" y="307.3936">Choisir une RDCU</text><text fill="#000000" font-family="sans-serif" font-size="12" lengthAdjust="spacingAndGlyphs" textLength="63" x="56" y="322.4873">(considérer</text><text fill="#000000" font-family="sans-serif" font-size="12" font-style="italic" lengthAdjust="spacingAndGlyphs" textLength="36" x="122" y="322.4873">Issues</text><text fill="#000000" font-family="sans-serif" font-size="12" lengthAdjust="spacingAndGlyphs" textLength="53" x="161" y="322.4873">existants)</text><rect fill="#FEFECE" height="35.0938" rx="12.5" ry="12.5" style="stroke: #A80036; stroke-width: 1.5;" width="123" x="73.5" y="355.124"/><text fill="#000000" font-family="sans-serif" font-size="12" lengthAdjust="spacingAndGlyphs" textLength="103" x="83.5" y="377.5811">Identifier problème</text><polygon fill="#FEFECE" points="96,228.0176,174,228.0176,186,240.0176,174,252.0176,96,252.0176,84,240.0176,96,228.0176" style="stroke: #A80036; stroke-width: 1.5;"/><text fill="#000000" font-family="sans-serif" font-size="11" lengthAdjust="spacingAndGlyphs" textLength="18" x="139" y="263.4365">vrai</text><text fill="#000000" font-family="sans-serif" font-size="11" lengthAdjust="spacingAndGlyphs" textLength="78" x="96" y="244.5186">RDCU à valider?</text><text fill="#000000" font-family="sans-serif" font-size="11" lengthAdjust="spacingAndGlyphs" textLength="22" x="62" y="237.6006">faux</text><rect fill="#FEFECE" height="35.0938" rx="12.5" ry="12.5" style="stroke: #A80036; stroke-width: 1.5;" width="88" x="91" y="542.4053"/><text fill="#000000" font-family="sans-serif" font-size="12" lengthAdjust="spacingAndGlyphs" textLength="68" x="101" y="564.8623">Lancer tests</text><rect fill="#FEFECE" height="35.0938" rx="12.5" ry="12.5" style="stroke: #A80036; stroke-width: 1.5;" width="138" x="66" y="597.499"/><text fill="#000000" font-family="sans-serif" font-size="12" lengthAdjust="spacingAndGlyphs" textLength="118" x="76" y="619.9561">Identifier problème(s)</text><line style="stroke: #000000; stroke-width: 2.0;" x1="15" x2="15" y1="35.0957" y2="742.7803"/><rect fill="#FEFECE" height="35.0938" rx="12.5" ry="12.5" style="stroke: #A80036; stroke-width: 1.5;" width="84" x="264" y="410.2178"/><text fill="#000000" font-family="sans-serif" font-size="12" lengthAdjust="spacingAndGlyphs" textLength="31" x="274" y="432.6748">Créer</text><text fill="#000000" font-family="sans-serif" font-size="12" font-style="italic" lengthAdjust="spacingAndGlyphs" textLength="30" x="308" y="432.6748">Issue</text><rect fill="#FEFECE" height="35.0938" rx="12.5" ry="12.5" style="stroke: #A80036; stroke-width: 1.5;" width="98" x="257" y="652.5928"/><text fill="#000000" font-family="sans-serif" font-size="12" lengthAdjust="spacingAndGlyphs" textLength="31" x="267" y="675.0498">Créer</text><text fill="#000000" font-family="sans-serif" font-size="12" font-style="italic" lengthAdjust="spacingAndGlyphs" textLength="44" x="301" y="675.0498">Issue(s)</text><line style="stroke: #000000; stroke-width: 2.0;" x1="251" x2="251" y1="35.0957" y2="742.7803"/><rect fill="#FAEBD7" height="707.6846" style="stroke: #FAEBD7; stroke-width: 1.0;" width="77" x="359" y="35.0957"/><rect fill="#FEFECE" height="35.0938" style="stroke: #A80036; stroke-width: 1.5;" width="53" x="372" y="465.3115"/><text fill="#000000" font-family="sans-serif" font-size="12" font-style="italic" lengthAdjust="spacingAndGlyphs" textLength="30" x="382" y="487.7686">Issue</text><text fill="#000000" font-family="sans-serif" font-size="12" lengthAdjust="spacingAndGlyphs" textLength="0" x="415" y="487.7686"/><rect fill="#FEFECE" height="35.0938" style="stroke: #A80036; stroke-width: 1.5;" width="67" x="365" y="707.6865"/><text fill="#000000" font-family="sans-serif" font-size="12" font-style="italic" lengthAdjust="spacingAndGlyphs" textLength="44" x="375" y="730.1436">Issue(s)</text><text fill="#000000" font-family="sans-serif" font-size="12" lengthAdjust="spacingAndGlyphs" textLength="0" x="422" y="730.1436"/><line style="stroke: #000000; stroke-width: 2.0;" x1="359" x2="359" y1="35.0957" y2="742.7803"/><line style="stroke: #000000; stroke-width: 2.0;" x1="436" x2="436" y1="35.0957" y2="742.7803"/><polygon fill="#A80036" points="453.5,385.2529,457.5,375.2529,461.5,385.2529,457.5,381.2529" style="stroke: #A80036; stroke-width: 1.0;"/><line style="stroke: #A80036; stroke-width: 1.5;" x1="135" x2="135" y1="82.7363" y2="102.7363"/><polygon fill="#A80036" points="131,92.7363,135,102.7363,139,92.7363,135,96.7363" style="stroke: #A80036; stroke-width: 1.0;"/><line style="stroke: #A80036; stroke-width: 1.5;" x1="135" x2="135" y1="137.8301" y2="157.8301"/><polygon fill="#A80036" points="131,147.8301,135,157.8301,139,147.8301,135,151.8301" style="stroke: #A80036; stroke-width: 1.0;"/><line style="stroke: #A80036; stroke-width: 1.5;" x1="135" x2="135" y1="335.124" y2="355.124"/><polygon fill="#A80036" points="131,345.124,135,355.124,139,345.124,135,349.124" style="stroke: #A80036; stroke-width: 1.0;"/><line style="stroke: #A80036; stroke-width: 1.5;" x1="135" x2="135" y1="252.0176" y2="284.9365"/><polygon fill="#A80036" points="131,274.9365,135,284.9365,139,274.9365,135,278.9365" style="stroke: #A80036; stroke-width: 1.0;"/><line style="stroke: #A80036; stroke-width: 1.5;" x1="84" x2="34" y1="240.0176" y2="240.0176"/><polygon fill="#A80036" points="30,377.2529,34,387.2529,38,377.2529,34,381.2529" style="stroke: #A80036; stroke-width: 1.5;"/><line style="stroke: #A80036; stroke-width: 1.5;" x1="34" x2="34" y1="240.0176" y2="522.4053"/><line style="stroke: #A80036; stroke-width: 1.5;" x1="34" x2="135" y1="522.4053" y2="522.4053"/><line style="stroke: #A80036; stroke-width: 1.5;" x1="135" x2="135" y1="522.4053" y2="542.4053"/><polygon fill="#A80036" points="131,532.4053,135,542.4053,139,532.4053,135,536.4053" style="stroke: #A80036; stroke-width: 1.0;"/><line style="stroke: #A80036; stroke-width: 1.5;" x1="135" x2="135" y1="208.0176" y2="228.0176"/><polygon fill="#A80036" points="131,218.0176,135,228.0176,139,218.0176,135,222.0176" style="stroke: #A80036; stroke-width: 1.0;"/><line style="stroke: #A80036; stroke-width: 1.5;" x1="135" x2="135" y1="577.499" y2="597.499"/><polygon fill="#A80036" points="131,587.499,135,597.499,139,587.499,135,591.499" style="stroke: #A80036; stroke-width: 1.0;"/><line style="stroke: #A80036; stroke-width: 1.5;" x1="135" x2="135" y1="390.2178" y2="395.2178"/><line style="stroke: #A80036; stroke-width: 1.5;" x1="135" x2="306" y1="395.2178" y2="395.2178"/><line style="stroke: #A80036; stroke-width: 1.5;" x1="306" x2="306" y1="395.2178" y2="410.2178"/><polygon fill="#A80036" points="302,400.2178,306,410.2178,310,400.2178,306,404.2178" style="stroke: #A80036; stroke-width: 1.0;"/><line style="stroke: #A80036; stroke-width: 1.5;" x1="306" x2="306" y1="445.3115" y2="450.3115"/><line style="stroke: #A80036; stroke-width: 1.5;" x1="306" x2="398.5" y1="450.3115" y2="450.3115"/><line style="stroke: #A80036; stroke-width: 1.5;" x1="398.5" x2="398.5" y1="450.3115" y2="465.3115"/><polygon fill="#A80036" points="394.5,455.3115,398.5,465.3115,402.5,455.3115,398.5,459.3115" style="stroke: #A80036; stroke-width: 1.0;"/><line style="stroke: #A80036; stroke-width: 1.5;" x1="398.5" x2="398.5" y1="500.4053" y2="510.4053"/><line style="stroke: #A80036; stroke-width: 1.5;" x1="398.5" x2="457.5" y1="510.4053" y2="510.4053"/><line style="stroke: #A80036; stroke-width: 1.5;" x1="457.5" x2="457.5" y1="240.0176" y2="510.4053"/><line style="stroke: #A80036; stroke-width: 1.5;" x1="457.5" x2="186" y1="240.0176" y2="240.0176"/><polygon fill="#A80036" points="196,236.0176,186,240.0176,196,244.0176,192,240.0176" style="stroke: #A80036; stroke-width: 1.0;"/><line style="stroke: #A80036; stroke-width: 1.5;" x1="135" x2="135" y1="632.5928" y2="637.5928"/><line style="stroke: #A80036; stroke-width: 1.5;" x1="135" x2="306" y1="637.5928" y2="637.5928"/><line style="stroke: #A80036; stroke-width: 1.5;" x1="306" x2="306" y1="637.5928" y2="652.5928"/><polygon fill="#A80036" points="302,642.5928,306,652.5928,310,642.5928,306,646.5928" style="stroke: #A80036; stroke-width: 1.0;"/><line style="stroke: #A80036; stroke-width: 1.5;" x1="306" x2="306" y1="687.6865" y2="692.6865"/><line style="stroke: #A80036; stroke-width: 1.5;" x1="306" x2="398.5" y1="692.6865" y2="692.6865"/><line style="stroke: #A80036; stroke-width: 1.5;" x1="398.5" x2="398.5" y1="692.6865" y2="707.6865"/><polygon fill="#A80036" points="394.5,697.6865,398.5,707.6865,402.5,697.6865,398.5,701.6865" style="stroke: #A80036; stroke-width: 1.0;"/><text fill="#000000" font-family="sans-serif" font-size="18" lengthAdjust="spacingAndGlyphs" textLength="201" x="32.5" y="53.7813">Auxiliaire d'enseignement</text><text fill="#000000" font-family="sans-serif" font-size="18" lengthAdjust="spacingAndGlyphs" textLength="56" x="277" y="53.7813">Équipe</text><text fill="#000000" font-family="sans-serif" font-size="18" lengthAdjust="spacingAndGlyphs" textLength="56" x="369.5" y="53.7813">GitHub</text><!--MD5=[1e79f87a7ec879a132f5ed28a569b798]
@startuml activite-évaluation-implémentation
title Évaluation de l'implémentation (dernière itération)
skinparam style strictuml
skinparam DefaultTextAlignment center
|#AntiqueWhite|Auxiliaire d'enseignement|
start
:Ouvrir code et rapport de l'itération;
:Vérifier correspondance code et MDD
(écart des représentations);
while (RDCU à valider?) is (vrai)
:Choisir une RDCU
(considérer //Issues// existants);
:Identifier problème;
|Équipe|
:Créer //Issue//;
|#AntiqueWhite|GitHub|
://Issue// ]
endwhile (faux)
|Auxiliaire d'enseignement|
:Lancer tests;
:Identifier problème(s);
|Équipe|
:Créer //Issue(s)//;
|GitHub|
://Issue(s)// ]
@enduml

PlantUML version 1.2020.15(Sun Jun 28 07:39:45 EDT 2020)
(GPL source distribution)
Java Runtime: OpenJDK Runtime Environment
JVM: OpenJDK 64-Bit Server VM
Default Encoding: Cp1252
Language: en
Country: CA
--></g></svg>