<?xml version="1.0" encoding="UTF-8" standalone="no"?><svg xmlns="http://www.w3.org/2000/svg" xmlns:xlink="http://www.w3.org/1999/xlink" contentScriptType="application/ecmascript" contentStyleType="text/css" height="618px" preserveAspectRatio="none" style="width:825px;height:618px;background:#FEFEFE;" version="1.1" viewBox="0 0 825 618" width="825px" zoomAndPan="magnify"><defs/><g><text fill="#000000" font-family="sans-serif" font-size="18" lengthAdjust="spacing" textLength="241" x="291" y="26.708">Activité de démonstration</text><rect fill="#FAEBD7" height="572.5078" style="stroke:#FAEBD7;stroke-width:1.0;" width="248" x="15" y="33.6982"/><ellipse cx="157" cy="69.6514" fill="#000000" rx="10" ry="10" style="stroke:none;stroke-width:1.0;"/><rect fill="#FEFECE" height="47.9375" rx="12.5" ry="12.5" style="stroke:#A80036;stroke-width:1.5;" width="195" x="59.5" y="266.4248"/><text fill="#000000" font-family="sans-serif" font-size="12" lengthAdjust="spacing" textLength="108" x="103" y="287.5635">Choisir une FURPS</text><text fill="#000000" font-family="sans-serif" font-size="12" lengthAdjust="spacing" textLength="71" x="69.5" y="301.5322">(considérer</text><text fill="#000000" font-family="sans-serif" font-size="12" font-style="italic" lengthAdjust="spacing" textLength="37" x="144.5" y="301.5322">Issues</text><text fill="#000000" font-family="sans-serif" font-size="12" lengthAdjust="spacing" textLength="59" x="185.5" y="301.5322">existants)</text><rect fill="#FEFECE" height="33.9688" rx="12.5" ry="12.5" style="stroke:#A80036;stroke-width:1.5;" width="136" x="89" y="442.2998"/><text fill="#000000" font-family="sans-serif" font-size="12" lengthAdjust="spacing" textLength="116" x="99" y="463.4385">Identifier problème</text><polygon fill="#FEFECE" points="99,205.6201,215,205.6201,227,217.6201,215,229.6201,99,229.6201,87,217.6201,99,205.6201" style="stroke:#A80036;stroke-width:1.5;"/><text fill="#000000" font-family="sans-serif" font-size="11" lengthAdjust="spacing" textLength="21" x="161" y="239.8306">vrai</text><text fill="#000000" font-family="sans-serif" font-size="11" lengthAdjust="spacing" textLength="116" x="99" y="221.4282">FURPS à démontrer?</text><text fill="#000000" font-family="sans-serif" font-size="11" lengthAdjust="spacing" textLength="25" x="62" y="215.0259">faux</text><ellipse cx="38.5" cy="264.6201" fill="#FEFEFE" rx="11" ry="11" style="stroke:#000000;stroke-width:1.0;"/><ellipse cx="38.5" cy="264.6201" fill="#000000" rx="6" ry="6" style="stroke:#7F7F7F;stroke-width:1.0;"/><line style="stroke:#000000;stroke-width:2.0;" x1="15" x2="15" y1="33.6982" y2="606.2061"/><rect fill="#000000" height="6" rx="2.5" ry="2.5" style="stroke:#000000;stroke-width:1.0;" width="305" x="269" y="99.6514"/><rect fill="#FEFECE" height="33.9688" rx="12.5" ry="12.5" style="stroke:#A80036;stroke-width:1.5;" width="124" x="281" y="125.6514"/><text fill="#000000" font-family="sans-serif" font-size="12" lengthAdjust="spacing" textLength="104" x="291" y="146.79">Ouvrir exigences</text><rect fill="#FEFECE" height="33.9688" rx="12.5" ry="12.5" style="stroke:#A80036;stroke-width:1.5;" width="129" x="433" y="125.6514"/><text fill="#000000" font-family="sans-serif" font-size="12" lengthAdjust="spacing" textLength="109" x="443" y="146.79">Lancer application</text><rect fill="#000000" height="6" rx="2.5" ry="2.5" style="stroke:#000000;stroke-width:1.0;" width="305" x="269" y="179.6201"/><rect fill="#FEFECE" height="33.9688" rx="12.5" ry="12.5" style="stroke:#A80036;stroke-width:1.5;" width="101" x="371" y="334.3623"/><text fill="#000000" font-family="sans-serif" font-size="12" lengthAdjust="spacing" textLength="81" x="381" y="355.501">Lancer FURPS</text><rect fill="#FEFECE" height="33.9688" rx="12.5" ry="12.5" style="stroke:#A80036;stroke-width:1.5;" width="89" x="377" y="496.2686"/><text fill="#000000" font-family="sans-serif" font-size="12" lengthAdjust="spacing" textLength="34" x="387" y="517.4072">Créer</text><text fill="#000000" font-family="sans-serif" font-size="12" font-style="italic" lengthAdjust="spacing" textLength="31" x="425" y="517.4072">Issue</text><line style="stroke:#000000;stroke-width:2.0;" x1="263" x2="263" y1="33.6982" y2="606.2061"/><rect fill="#FAEBD7" height="572.5078" style="stroke:#FAEBD7;stroke-width:1.0;" width="124" x="578" y="33.6982"/><rect fill="#FEFECE" height="33.9688" rx="12.5" ry="12.5" style="stroke:#A80036;stroke-width:1.5;" width="114" x="584" y="388.3311"/><text fill="#000000" font-family="sans-serif" font-size="12" lengthAdjust="spacing" textLength="94" x="594" y="409.4697">Exécuter FURPS</text><line style="stroke:#000000;stroke-width:2.0;" x1="578" x2="578" y1="33.6982" y2="606.2061"/><rect fill="#FEFECE" height="33.9688" style="stroke:#A80036;stroke-width:1.5;" width="55" x="713" y="550.2373"/><text fill="#000000" font-family="sans-serif" font-size="12" font-style="italic" lengthAdjust="spacing" textLength="31" x="723" y="571.376">Issue</text><text fill="#000000" font-family="sans-serif" font-size="12" lengthAdjust="spacing" textLength="0" x="758" y="571.376"/><line style="stroke:#000000;stroke-width:2.0;" x1="702" x2="702" y1="33.6982" y2="606.2061"/><line style="stroke:#000000;stroke-width:2.0;" x1="777" x2="777" y1="33.6982" y2="606.2061"/><polygon fill="#A80036" points="795,418.4131,799,408.4131,803,418.4131,799,414.4131" style="stroke:#A80036;stroke-width:1.0;"/><line style="stroke:#A80036;stroke-width:1.5;" x1="157" x2="157" y1="229.6201" y2="266.4248"/><polygon fill="#A80036" points="153,256.4248,157,266.4248,161,256.4248,157,260.4248" style="stroke:#A80036;stroke-width:1.0;"/><line style="stroke:#A80036;stroke-width:1.5;" x1="87" x2="38.5" y1="217.6201" y2="217.6201"/><line style="stroke:#A80036;stroke-width:1.5;" x1="38.5" x2="38.5" y1="217.6201" y2="253.6201"/><polygon fill="#A80036" points="34.5,243.6201,38.5,253.6201,42.5,243.6201,38.5,247.6201" style="stroke:#A80036;stroke-width:1.0;"/><line style="stroke:#A80036;stroke-width:1.5;" x1="343" x2="343" y1="105.6514" y2="125.6514"/><polygon fill="#A80036" points="339,115.6514,343,125.6514,347,115.6514,343,119.6514" style="stroke:#A80036;stroke-width:1.0;"/><line style="stroke:#A80036;stroke-width:1.5;" x1="497.5" x2="497.5" y1="105.6514" y2="125.6514"/><polygon fill="#A80036" points="493.5,115.6514,497.5,125.6514,501.5,115.6514,497.5,119.6514" style="stroke:#A80036;stroke-width:1.0;"/><line style="stroke:#A80036;stroke-width:1.5;" x1="343" x2="343" y1="159.6201" y2="179.6201"/><polygon fill="#A80036" points="339,169.6201,343,179.6201,347,169.6201,343,173.6201" style="stroke:#A80036;stroke-width:1.0;"/><line style="stroke:#A80036;stroke-width:1.5;" x1="497.5" x2="497.5" y1="159.6201" y2="179.6201"/><polygon fill="#A80036" points="493.5,169.6201,497.5,179.6201,501.5,169.6201,497.5,173.6201" style="stroke:#A80036;stroke-width:1.0;"/><line style="stroke:#A80036;stroke-width:1.5;" x1="157" x2="157" y1="79.6514" y2="84.6514"/><line style="stroke:#A80036;stroke-width:1.5;" x1="157" x2="421.5" y1="84.6514" y2="84.6514"/><line style="stroke:#A80036;stroke-width:1.5;" x1="421.5" x2="421.5" y1="84.6514" y2="99.6514"/><polygon fill="#A80036" points="417.5,89.6514,421.5,99.6514,425.5,89.6514,421.5,93.6514" style="stroke:#A80036;stroke-width:1.0;"/><line style="stroke:#A80036;stroke-width:1.5;" x1="157" x2="157" y1="314.3623" y2="319.3623"/><line style="stroke:#A80036;stroke-width:1.5;" x1="157" x2="421.5" y1="319.3623" y2="319.3623"/><line style="stroke:#A80036;stroke-width:1.5;" x1="421.5" x2="421.5" y1="319.3623" y2="334.3623"/><polygon fill="#A80036" points="417.5,324.3623,421.5,334.3623,425.5,324.3623,421.5,328.3623" style="stroke:#A80036;stroke-width:1.0;"/><line style="stroke:#A80036;stroke-width:1.5;" x1="421.5" x2="421.5" y1="368.3311" y2="373.3311"/><line style="stroke:#A80036;stroke-width:1.5;" x1="421.5" x2="641" y1="373.3311" y2="373.3311"/><line style="stroke:#A80036;stroke-width:1.5;" x1="641" x2="641" y1="373.3311" y2="388.3311"/><polygon fill="#A80036" points="637,378.3311,641,388.3311,645,378.3311,641,382.3311" style="stroke:#A80036;stroke-width:1.0;"/><line style="stroke:#A80036;stroke-width:1.5;" x1="641" x2="641" y1="422.2998" y2="427.2998"/><line style="stroke:#A80036;stroke-width:1.5;" x1="641" x2="157" y1="427.2998" y2="427.2998"/><line style="stroke:#A80036;stroke-width:1.5;" x1="157" x2="157" y1="427.2998" y2="442.2998"/><polygon fill="#A80036" points="153,432.2998,157,442.2998,161,432.2998,157,436.2998" style="stroke:#A80036;stroke-width:1.0;"/><line style="stroke:#A80036;stroke-width:1.5;" x1="157" x2="157" y1="476.2686" y2="481.2686"/><line style="stroke:#A80036;stroke-width:1.5;" x1="157" x2="421.5" y1="481.2686" y2="481.2686"/><line style="stroke:#A80036;stroke-width:1.5;" x1="421.5" x2="421.5" y1="481.2686" y2="496.2686"/><polygon fill="#A80036" points="417.5,486.2686,421.5,496.2686,425.5,486.2686,421.5,490.2686" style="stroke:#A80036;stroke-width:1.0;"/><line style="stroke:#A80036;stroke-width:1.5;" x1="421.5" x2="421.5" y1="530.2373" y2="535.2373"/><line style="stroke:#A80036;stroke-width:1.5;" x1="421.5" x2="740.5" y1="535.2373" y2="535.2373"/><line style="stroke:#A80036;stroke-width:1.5;" x1="740.5" x2="740.5" y1="535.2373" y2="550.2373"/><polygon fill="#A80036" points="736.5,540.2373,740.5,550.2373,744.5,540.2373,740.5,544.2373" style="stroke:#A80036;stroke-width:1.0;"/><line style="stroke:#A80036;stroke-width:1.5;" x1="740.5" x2="740.5" y1="584.2061" y2="594.2061"/><line style="stroke:#A80036;stroke-width:1.5;" x1="740.5" x2="799" y1="594.2061" y2="594.2061"/><line style="stroke:#A80036;stroke-width:1.5;" x1="799" x2="799" y1="217.6201" y2="594.2061"/><line style="stroke:#A80036;stroke-width:1.5;" x1="799" x2="227" y1="217.6201" y2="217.6201"/><polygon fill="#A80036" points="237,213.6201,227,217.6201,237,221.6201,233,217.6201" style="stroke:#A80036;stroke-width:1.0;"/><line style="stroke:#A80036;stroke-width:1.5;" x1="421.5" x2="421.5" y1="185.6201" y2="190.6201"/><line style="stroke:#A80036;stroke-width:1.5;" x1="421.5" x2="157" y1="190.6201" y2="190.6201"/><line style="stroke:#A80036;stroke-width:1.5;" x1="157" x2="157" y1="190.6201" y2="205.6201"/><polygon fill="#A80036" points="153,195.6201,157,205.6201,161,195.6201,157,199.6201" style="stroke:#A80036;stroke-width:1.0;"/><text fill="#000000" font-family="sans-serif" font-size="18" lengthAdjust="spacing" textLength="240" x="19" y="50.4063">Auxiliaire d'enseignement</text><text fill="#000000" font-family="sans-serif" font-size="18" lengthAdjust="spacing" textLength="63" x="389" y="50.4063">Équipe</text><text fill="#000000" font-family="sans-serif" font-size="18" lengthAdjust="spacing" textLength="37" x="621.5" y="50.4063">SGA</text><text fill="#000000" font-family="sans-serif" font-size="18" lengthAdjust="spacing" textLength="65" x="707" y="50.4063">GitHub</text><!--MD5=[238865c4fe0fb6fa2d5fd067f4bab3f6]
@startuml
title Activité de démonstration
skinparam style strictuml
skinparam DefaultTextAlignment center
skinparam BackgroundColor #fefefe
|#AntiqueWhite|Auxiliaire d'enseignement|
start
|Équipe|
fork
:Ouvrir exigences;
fork again
:Lancer application;
end fork
|Auxiliaire d'enseignement|
while (FURPS à démontrer?) is (vrai)
:Choisir une FURPS
(considérer //Issues// existants);
|Équipe|
:Lancer FURPS;
|#AntiqueWhite|SGA|
:Exécuter FURPS;
|Auxiliaire d'enseignement|
:Identifier problème;
|Équipe|
:Créer //Issue//;
|GitHub|
://Issue// ]
endwhile (faux)
|Auxiliaire d'enseignement|
stop
@enduml

PlantUML version 1.2021.10(Mon Aug 30 13:43:48 UTC 2021)
(GPL source distribution)
Java Runtime: Java(TM) SE Runtime Environment
JVM: Java HotSpot(TM) 64-Bit Server VM
Default Encoding: UTF-8
Language: en
Country: US
--></g></svg>