<?xml version="1.0" encoding="UTF-8" standalone="no"?><svg xmlns="http://www.w3.org/2000/svg" xmlns:xlink="http://www.w3.org/1999/xlink" contentScriptType="application/ecmascript" contentStyleType="text/css" height="536px" preserveAspectRatio="none" style="width:533px;height:536px;" version="1.1" viewBox="0 0 533 536" width="533px" zoomAndPan="magnify"><defs/><g><!--MD5=[66f88c57ef64f50dae71b0b92300acde]
cluster Navigateur moderne--><polygon fill="#FFFFFF" points="262,16,272,6,484,6,484,153,474,163,262,163,262,16" style="stroke: #000000; stroke-width: 1.5;"/><line style="stroke: #000000; stroke-width: 1.5;" x1="474" x2="483" y1="16" y2="7"/><line style="stroke: #000000; stroke-width: 1.5;" x1="262" x2="474" y1="16" y2="16"/><line style="stroke: #000000; stroke-width: 1.5;" x1="474" x2="474" y1="16" y2="163"/><text fill="#000000" font-family="sans-serif" font-size="14" font-weight="bold" lengthAdjust="spacingAndGlyphs" textLength="144" x="297" y="33.5332">Navigateur moderne</text><!--MD5=[0c5ebc11d1f9055b162fb809766bcc2a]
cluster Système de gestion\ndes apprentissages\n(SGA)--><polygon fill="#FFFFFF" points="16,22,26,12,231,12,231,514,221,524,16,524,16,22" style="stroke: #000000; stroke-width: 1.5;"/><line style="stroke: #000000; stroke-width: 1.5;" x1="221" x2="230" y1="22" y2="13"/><line style="stroke: #000000; stroke-width: 1.5;" x1="16" x2="221" y1="22" y2="22"/><line style="stroke: #000000; stroke-width: 1.5;" x1="221" x2="221" y1="22" y2="524"/><text fill="#000000" font-family="sans-serif" font-size="14" font-weight="bold" lengthAdjust="spacingAndGlyphs" textLength="138" x="50.5" y="39.5332">Système de gestion</text><text fill="#000000" font-family="sans-serif" font-size="14" font-weight="bold" lengthAdjust="spacingAndGlyphs" textLength="139" x="50" y="57.1426">des apprentissages</text><text fill="#000000" font-family="sans-serif" font-size="14" font-weight="bold" lengthAdjust="spacingAndGlyphs" textLength="39" x="100" y="74.752">(SGA)</text><!--MD5=[a7e36d4aa44b43fc8fb02c9c2fa0b819]
cluster SGB--><polygon fill="#CCCCCC" points="297,214,307,204,511,204,511,379,501,389,297,389,297,214" style="stroke: #000000; stroke-width: 1.5;"/><line style="stroke: #000000; stroke-width: 1.5;" x1="501" x2="510" y1="214" y2="205"/><line style="stroke: #000000; stroke-width: 1.5;" x1="297" x2="501" y1="214" y2="214"/><line style="stroke: #000000; stroke-width: 1.5;" x1="501" x2="501" y1="214" y2="389"/><text fill="#000000" font-family="sans-serif" font-size="14" font-style="italic" lengthAdjust="spacingAndGlyphs" textLength="121" x="339.5" y="231.5332">«Système externe»</text><text fill="#000000" font-family="sans-serif" font-size="14" font-weight="bold" lengthAdjust="spacingAndGlyphs" textLength="138" x="331" y="249.1426">Système de gestion</text><text fill="#000000" font-family="sans-serif" font-size="14" font-weight="bold" lengthAdjust="spacingAndGlyphs" textLength="103" x="348.5" y="266.752">des borderaux</text><text fill="#000000" font-family="sans-serif" font-size="14" font-weight="bold" lengthAdjust="spacingAndGlyphs" textLength="40" x="380" y="284.3613">(SGB)</text><!--MD5=[beb5ad5244d3d849df9473931f7c2e5e]
entity GUI--><rect fill="#FEFECE" height="100.4375" style="stroke: #A80036; stroke-width: 1.5;" width="189" x="278.5" y="47"/><rect fill="#FEFECE" height="10" style="stroke: #A80036; stroke-width: 1.5;" width="15" x="447.5" y="52"/><rect fill="#FEFECE" height="2" style="stroke: #A80036; stroke-width: 1.5;" width="4" x="445.5" y="54"/><rect fill="#FEFECE" height="2" style="stroke: #A80036; stroke-width: 1.5;" width="4" x="445.5" y="58"/><text fill="#000000" font-family="sans-serif" font-size="14" lengthAdjust="spacingAndGlyphs" textLength="121" x="293.5" y="81.5332">Application frontale</text><text fill="#000000" font-family="sans-serif" font-size="14" lengthAdjust="spacingAndGlyphs" textLength="103" x="293.5" y="99.1426">minimaliste,p.ex.</text><text fill="#000000" font-family="sans-serif" font-size="14" lengthAdjust="spacingAndGlyphs" textLength="143" x="293.5" y="116.752">pages web (templates)</text><text fill="#000000" font-family="sans-serif" font-size="14" lengthAdjust="spacingAndGlyphs" textLength="149" x="293.5" y="134.3613">et un peu de JavaScript</text><!--MD5=[953a8c67cfe21abaf9bf45dad8506ca8]
entity Router--><ellipse cx="123" cy="97" fill="#FEFECE" rx="8" ry="8" style="stroke: #A80036; stroke-width: 2.0;"/><text fill="#000000" font-family="sans-serif" font-size="14" lengthAdjust="spacingAndGlyphs" textLength="54" x="96" y="128.5332">Routage</text><!--MD5=[6e8f311b0aa23032184ffba0ef926f91]
entity App--><rect fill="#FEFECE" height="82.8281" style="stroke: #A80036; stroke-width: 1.5;" width="178" x="34" y="294"/><rect fill="#FEFECE" height="10" style="stroke: #A80036; stroke-width: 1.5;" width="15" x="192" y="299"/><rect fill="#FEFECE" height="2" style="stroke: #A80036; stroke-width: 1.5;" width="4" x="190" y="301"/><rect fill="#FEFECE" height="2" style="stroke: #A80036; stroke-width: 1.5;" width="4" x="190" y="305"/><text fill="#000000" font-family="sans-serif" font-size="14" lengthAdjust="spacingAndGlyphs" textLength="119" x="49" y="328.5332">Application conçue</text><text fill="#000000" font-family="sans-serif" font-size="14" lengthAdjust="spacingAndGlyphs" textLength="138" x="49" y="346.1426">selon la méthodologie</text><text fill="#000000" font-family="sans-serif" font-size="14" lengthAdjust="spacingAndGlyphs" textLength="137" x="49" y="363.752">proposée par Larman</text><!--MD5=[0f236602209a03542e21b89873b828ef]
entity SimpleDB--><path d="M87.5,454 C87.5,444 123,444 123,444 C123,444 158.5,444 158.5,454 L158.5,498.2188 C158.5,508.2188 123,508.2188 123,508.2188 C123,508.2188 87.5,508.2188 87.5,498.2188 L87.5,454 " fill="#FFFFFF" style="stroke: #000000; stroke-width: 1.5;"/><path d="M87.5,454 C87.5,464 123,464 123,464 C123,464 158.5,464 158.5,454 " fill="none" style="stroke: #000000; stroke-width: 1.5;"/><text fill="#000000" font-family="sans-serif" font-size="14" lengthAdjust="spacingAndGlyphs" textLength="51" x="97.5" y="482.5332">Solution</text><text fill="#000000" font-family="sans-serif" font-size="14" lengthAdjust="spacingAndGlyphs" textLength="40" x="97.5" y="500.1426">simple</text><path d="M346.5,306 L346.5,365.0547 L481.5,365.0547 L481.5,316 L471.5,306 L346.5,306 " fill="#FBFB77" style="stroke: #A80036; stroke-width: 1.0;"/><path d="M471.5,306 L471.5,316 L481.5,316 L471.5,306 " fill="#FBFB77" style="stroke: #A80036; stroke-width: 1.0;"/><path d="M357.8333,315.4349 C355.4392,315.4349 353.5,317.3741 353.5,319.7682 C353.5,322.1624 355.4392,324.1016 357.8333,324.1016 C360.2275,324.1016 362.1667,322.1624 362.1667,319.7682 C362.1667,317.3741 360.2275,315.4349 357.8333,315.4349 M357.8333,316.5182 L357.8333,318.6849 L361.0833,318.6849 L361.0833,320.8516 L357.8333,320.8516 L357.8333,323.0182 L354.5833,319.7682 L357.8333,316.5182 " fill="#000000" style="stroke: ; stroke-width: 0.0; stroke-dasharray: ;"/><text fill="#000000" font-family="sans-serif" font-size="13" lengthAdjust="spacingAndGlyphs" textLength="91" x="367.1667" y="324.4951">Source pour les</text><text fill="#000000" font-family="sans-serif" font-size="13" lengthAdjust="spacingAndGlyphs" textLength="110" x="352.5" y="340.8467">infos sur les cours,</text><text fill="#000000" font-family="sans-serif" font-size="13" lengthAdjust="spacingAndGlyphs" textLength="104" x="352.5" y="357.1982">les étudiants, etc.</text><!--MD5=[56b72e7de0968c0cf25972f053180467]
reverse link Router to GUI--><path d="M142.2,97 C171.247,97 228.296,97 278.405,97 " fill="none" id="Router&lt;-GUI" style="stroke: #A80036; stroke-width: 1.0;"/><path d="M135.2722,105.4572 A9,9 0 0 0 135.2722 88.5428" fill="none" style="stroke: #A80036; stroke-width: 1.5;"/><text fill="#000000" font-family="sans-serif" font-size="13" lengthAdjust="spacingAndGlyphs" textLength="110" x="150.25" y="90.4951">API REST niveau 2</text><!--MD5=[ee207bd21a41d647759085e7fca34991]
link Router to App--><path d="M123,106.141 C123,135.381 123,236.4 123,293.802 " fill="none" id="Router-App" style="stroke: #A80036; stroke-width: 1.0;"/><!--MD5=[b87fad3cf41de54d892cd606074f6fe5]
link App to SimpleDB--><path d="M123,377.305 C123,398.53 123,424.07 123,443.7128 " fill="none" id="App-SimpleDB" style="stroke: #A80036; stroke-width: 1.0;"/><!--MD5=[8ceabf8ea623773f41dcf93e05bd7474]
link App to SGB--><path d="M212.249,335.5 C234.4245,335.5 256.8495,335.5 274.4175,335.5 C283.2015,335.5 290.7713,335.5 296.4884,335.5 C296.5778,335.5 296.6666,335.5 296.7551,335.5 " fill="none" id="App-SGB" style="stroke: #A80036; stroke-width: 1.0;"/><text fill="#000000" font-family="sans-serif" font-size="13" lengthAdjust="spacingAndGlyphs" textLength="59" x="230.32" y="328.9951">API REST</text><!--MD5=[65e6a5fd1ad7b3fce4c6b9ae6aafe9b4]
@startuml deploiement
skinparam style strictuml
skinparam componentStyle uml2

node "Navigateur moderne" {
    component [Application frontale\nminimaliste,p.ex.\npages web (templates)\net un peu de JavaScript] as GUI
}

node "Système de gestion\ndes apprentissages\n(SGA)" {
    interface Routage as Router

    [Application conçue\nselon la méthodologie\nproposée par Larman] as App

    database "Solution\nsimple" as SimpleDB {
    } 
}

node "Système de gestion\ndes borderaux\n(SGB)" as SGB <<Système externe>> #cccccc {
note as SGBNote
<&arrow-circle-left> Source pour les
infos sur les cours, 
les étudiants, etc.
end note
}


GUI -left-( Router : API REST niveau 2
Router -down- App
App -down- SimpleDB
App -right- SGB : API REST
@enduml

PlantUML version 1.2020.15(Sun Jun 28 07:39:45 EDT 2020)
(GPL source distribution)
Java Runtime: OpenJDK Runtime Environment
JVM: OpenJDK 64-Bit Server VM
Default Encoding: Cp1252
Language: en
Country: CA
--></g></svg>