<?xml version="1.0" encoding="UTF-8" standalone="no"?>
<!DOCTYPE svg PUBLIC "-//W3C//DTD SVG 1.1//EN"
 "http://www.w3.org/Graphics/SVG/1.1/DTD/svg11.dtd">
<!-- Generated by graphviz version 2.38.0 (20140413.2041)
 -->
<!-- Title: G Pages: 1 -->
<svg width="310pt" height="460pt"
 viewBox="0.00 0.00 310.00 459.60" xmlns="http://www.w3.org/2000/svg" xmlns:xlink="http://www.w3.org/1999/xlink">
<g id="graph0" class="graph" transform="scale(1 1) rotate(0) translate(4 455.6)">
<title>G</title>
<polygon fill="white" stroke="none" points="-4,4 -4,-455.6 306,-455.6 306,4 -4,4"/>
<text text-anchor="middle" x="151" y="-438" font-family="Helvetica,sans-Serif" font-size="12.00">Séparation des couches</text>
<text text-anchor="middle" x="151" y="-425" font-family="Helvetica,sans-Serif" font-size="12.00">(selon la Figure A17.24/F16.24 de Larman)</text>
<g id="clust1" class="cluster"><title>cluster_0</title>
<polygon fill="#ddffdd" stroke="#ddffdd" points="10,-175.6 10,-327.6 280,-327.6 280,-175.6 10,-175.6"/>
<text text-anchor="middle" x="61" y="-316.4" font-family="Helvetica,sans-Serif" font-style="oblique" font-size="9.00">Couche présentation</text>
</g>
<g id="clust4" class="cluster"><title>cluster_1</title>
<polygon fill="#ddddff" stroke="#ddddff" points="8,-8 8,-137.6 260,-137.6 260,-8 8,-8"/>
<text text-anchor="middle" x="52" y="-126.4" font-family="Helvetica,sans-Serif" font-style="oblique" font-size="9.00">Couche domaine</text>
</g>
<!-- utilisateur -->
<g id="node1" class="node"><title>utilisateur</title>
<polygon fill="white" stroke="none" points="151.5,-417.6 94.5,-417.6 94.5,-363.6 151.5,-363.6 151.5,-417.6"/>
<text text-anchor="start" x="117" y="-393.6" font-family="Helvetica,sans-Serif" font-weight="bold" font-size="20.00">?</text>
<text text-anchor="start" x="107" y="-375.4" font-family="Helvetica,sans-Serif" font-weight="bold" font-size="9.00">:Joueur</text>
</g>
<!-- pageWeb -->
<g id="node2" class="node"><title>pageWeb</title>
<polygon fill="white" stroke="black" points="149.5,-301.6 90.5,-301.6 90.5,-265.6 155.5,-265.6 155.5,-295.6 149.5,-301.6"/>
<polyline fill="none" stroke="black" points="149.5,-301.6 149.5,-295.6 "/>
<polyline fill="none" stroke="black" points="155.5,-295.6 149.5,-295.6 "/>
<text text-anchor="middle" x="123" y="-286.4" font-family="Helvetica,sans-Serif" font-size="9.00">Page web</text>
<text text-anchor="middle" x="123" y="-276.4" font-family="Helvetica,sans-Serif" font-size="9.00">(navigateur)</text>
</g>
<!-- utilisateur&#45;&gt;pageWeb -->
<g id="edge5" class="edge"><title>utilisateur&#45;&gt;pageWeb</title>
<path fill="none" stroke="black" stroke-dasharray="5,2" d="M123,-363.375C123,-347.681 123,-327.765 123,-311.886"/>
<polygon fill="black" stroke="black" points="126.5,-311.639 123,-301.639 119.5,-311.639 126.5,-311.639"/>
<text text-anchor="middle" x="168" y="-338.4" font-family="Helvetica,sans-Serif" font-size="9.00"> &#160;appuie sur le bouton</text>
</g>
<!-- routeur -->
<g id="node3" class="node"><title>routeur</title>
<polygon fill="lightyellow" stroke="black" points="150.5,-219.6 95.5,-219.6 95.5,-183.6 150.5,-183.6 150.5,-219.6"/>
<text text-anchor="start" x="108" y="-200.4" font-family="Helvetica,sans-Serif" font-weight="bold" font-size="9.00">:Router</text>
</g>
<!-- pageWeb&#45;&gt;routeur -->
<g id="edge1" class="edge"><title>pageWeb&#45;&gt;routeur</title>
<path fill="none" stroke="black" d="M123,-265.241C123,-254.897 123,-241.541 123,-229.821"/>
<polygon fill="black" stroke="black" points="126.5,-229.65 123,-219.65 119.5,-229.65 126.5,-229.65"/>
<text text-anchor="middle" x="212.5" y="-240.4" font-family="Courier,monospace" font-weight="bold" font-size="9.00"> HTTP GET /api/v1/demarrerJeu/Toto</text>
</g>
<!-- routeurNote -->
<g id="node6" class="node"><title>routeurNote</title>
<polygon fill="yellow" stroke="black" points="265.5,-219.6 186.5,-219.6 186.5,-183.6 271.5,-183.6 271.5,-213.6 265.5,-219.6"/>
<polyline fill="none" stroke="black" points="265.5,-219.6 265.5,-213.6 "/>
<polyline fill="none" stroke="black" points="271.5,-213.6 265.5,-213.6 "/>
<text text-anchor="middle" x="229" y="-204.4" font-family="Helvetica,sans-Serif" font-style="oblique" font-size="9.00">Routeur Express</text>
<text text-anchor="middle" x="229" y="-194.4" font-family="Helvetica,sans-Serif" font-style="oblique" font-size="9.00">(Node)</text>
</g>
<!-- routeur&#45;&gt;routeurNote -->
<g id="edge2" class="edge"><title>routeur&#45;&gt;routeurNote</title>
<path fill="none" stroke="black" stroke-dasharray="5,2" d="M150.742,-201.6C162.562,-201.6 174.383,-201.6 186.203,-201.6"/>
</g>
<!-- controleur -->
<g id="node9" class="node"><title>controleur</title>
<polygon fill="lightyellow" stroke="black" points="158,-111.6 88,-111.6 88,-75.6 158,-75.6 158,-111.6"/>
<text text-anchor="start" x="100" y="-92.4" font-family="Helvetica,sans-Serif" font-weight="bold" font-size="9.00">:JeuDeDes</text>
</g>
<!-- routeur&#45;&gt;controleur -->
<g id="edge4" class="edge"><title>routeur&#45;&gt;controleur</title>
<path fill="none" stroke="black" d="M123,-183.569C123,-166.978 123,-141.483 123,-122.031"/>
<polygon fill="black" stroke="black" points="126.5,-121.941 123,-111.941 119.5,-121.941 126.5,-121.941"/>
<text text-anchor="middle" x="123" y="-156.369" font-family="Helvetica,sans-Serif" font-size="9.00">routeurcontroleur&#45;&gt;</text>
</g>
<!-- c11 -->
<g id="node4" class="node"><title>c11</title>
<polygon fill="none" stroke="none" points="72,-301.6 18,-301.6 18,-265.6 72,-265.6 72,-301.6"/>
</g>
<!-- c10 -->
<g id="node5" class="node"><title>c10</title>
<polygon fill="none" stroke="none" points="77.5,-219.6 18.5,-219.6 18.5,-183.6 77.5,-183.6 77.5,-219.6"/>
<text text-anchor="middle" x="48" y="-199.4" font-family="Helvetica,sans-Serif" font-size="9.00"> &#160;&#160;&#160;&#160;&#160;&#160;&#160;&#160;&#160;&#160;&#160;&#160;&#160;&#160;&#160;&#160;&#160;&#160;</text>
</g>
<!-- domain -->
<g id="node7" class="node"><title>domain</title>
<ellipse fill="none" stroke="none" cx="123" cy="-17.8" rx="1.8" ry="1.8"/>
</g>
<!-- controleurNote -->
<g id="node8" class="node"><title>controleurNote</title>
<polygon fill="yellow" stroke="black" points="246,-111.6 194,-111.6 194,-75.6 252,-75.6 252,-105.6 246,-111.6"/>
<polyline fill="none" stroke="black" points="246,-111.6 246,-105.6 "/>
<polyline fill="none" stroke="black" points="252,-105.6 246,-105.6 "/>
<text text-anchor="middle" x="223" y="-91.4" font-family="Helvetica,sans-Serif" font-style="oblique" font-size="9.00">contrôleur</text>
</g>
<!-- controleur&#45;&gt;domain -->
<g id="edge6" class="edge"><title>controleur&#45;&gt;domain</title>
<path fill="none" stroke="black" d="M123,-75.4833C123,-61.437 123,-41.9608 123,-29.8823"/>
<polygon fill="black" stroke="black" points="126.5,-29.6802 123,-19.6802 119.5,-29.6803 126.5,-29.6802"/>
<text text-anchor="middle" x="163.5" y="-50.4" font-family="Helvetica,sans-Serif" font-size="9.00"> ... (selon la logique</text>
<text text-anchor="middle" x="163.5" y="-40.4" font-family="Helvetica,sans-Serif" font-size="9.00">du domaine)</text>
</g>
<!-- controleur&#45;&gt;controleurNote -->
<g id="edge3" class="edge"><title>controleur&#45;&gt;controleurNote</title>
<path fill="none" stroke="black" stroke-dasharray="5,2" d="M158.156,-93.6C170.061,-93.6 181.966,-93.6 193.871,-93.6"/>
</g>
<!-- filler6 -->
<g id="node10" class="node"><title>filler6</title>
<polygon fill="none" stroke="none" points="70,-111.6 16,-111.6 16,-75.6 70,-75.6 70,-111.6"/>
</g>
</g>
</svg>
