<?xml version="1.0" encoding="UTF-8" standalone="no"?>
<!DOCTYPE svg PUBLIC "-//W3C//DTD SVG 1.1//EN"
 "http://www.w3.org/Graphics/SVG/1.1/DTD/svg11.dtd">
<!-- Generated by graphviz version 2.38.0 (20140413.2041)
 -->
<!-- Title: G Pages: 1 -->
<svg width="311pt" height="460pt"
 viewBox="0.00 0.00 311.00 459.60" xmlns="http://www.w3.org/2000/svg" xmlns:xlink="http://www.w3.org/1999/xlink">
<g id="graph0" class="graph" transform="scale(1 1) rotate(0) translate(4 455.6)">
<title>G</title>
<polygon fill="white" stroke="none" points="-4,4 -4,-455.6 307,-455.6 307,4 -4,4"/>
<text text-anchor="middle" x="151.5" y="-438" font-family="Helvetica,sans-Serif" font-size="12.00">Séparation des couches</text>
<text text-anchor="middle" x="151.5" y="-425" font-family="Helvetica,sans-Serif" font-size="12.00">(selon la Figure A17.24/F16.24 de Larman)</text>
<g id="clust1" class="cluster"><title>cluster_0</title>
<polygon fill="#ddffdd" stroke="#ddffdd" points="11,-175.6 11,-327.6 283,-327.6 283,-175.6 11,-175.6"/>
<text text-anchor="middle" x="62" y="-316.4" font-family="Helvetica,sans-Serif" font-style="oblique" font-size="9.00">Couche présentation</text>
</g>
<g id="clust4" class="cluster"><title>cluster_1</title>
<polygon fill="#ddddff" stroke="#ddddff" points="8,-8 8,-137.6 263,-137.6 263,-8 8,-8"/>
<text text-anchor="middle" x="51.5" y="-126.4" font-family="Helvetica,sans-Serif" font-style="oblique" font-size="9.00">Couche domaine</text>
</g>
<!-- utilisateur -->
<g id="node1" class="node"><title>utilisateur</title>
<polygon fill="white" stroke="none" points="153,-417.6 95,-417.6 95,-363.6 153,-363.6 153,-417.6"/>
<text text-anchor="start" x="113" y="-393.6" font-family="Helvetica,sans-Serif" font-weight="bold" font-size="20.00">웃</text>
<text text-anchor="start" x="107" y="-375.4" font-family="Helvetica,sans-Serif" font-weight="bold" font-size="9.00">:Joueur</text>
</g>
<!-- pageWeb -->
<g id="node2" class="node"><title>pageWeb</title>
<polygon fill="white" stroke="black" points="151,-301.6 91,-301.6 91,-265.6 157,-265.6 157,-295.6 151,-301.6"/>
<polyline fill="none" stroke="black" points="151,-301.6 151,-295.6 "/>
<polyline fill="none" stroke="black" points="157,-295.6 151,-295.6 "/>
<text text-anchor="middle" x="124" y="-286.4" font-family="Helvetica,sans-Serif" font-size="9.00">Page web</text>
<text text-anchor="middle" x="124" y="-276.4" font-family="Helvetica,sans-Serif" font-size="9.00">(navigateur)</text>
</g>
<!-- utilisateur&#45;&gt;pageWeb -->
<g id="edge5" class="edge"><title>utilisateur&#45;&gt;pageWeb</title>
<path fill="none" stroke="black" stroke-dasharray="5,2" d="M124,-363.375C124,-347.681 124,-327.765 124,-311.886"/>
<polygon fill="black" stroke="black" points="127.5,-311.639 124,-301.639 120.5,-311.639 127.5,-311.639"/>
<text text-anchor="middle" x="168.5" y="-338.4" font-family="Helvetica,sans-Serif" font-size="9.00"> &#160;appuie sur le bouton</text>
</g>
<!-- routeur -->
<g id="node3" class="node"><title>routeur</title>
<polygon fill="lightyellow" stroke="black" points="153.5,-219.6 96.5,-219.6 96.5,-183.6 153.5,-183.6 153.5,-219.6"/>
<text text-anchor="start" x="109" y="-200.4" font-family="Helvetica,sans-Serif" font-weight="bold" font-size="9.00">:Router</text>
</g>
<!-- pageWeb&#45;&gt;routeur -->
<g id="edge1" class="edge"><title>pageWeb&#45;&gt;routeur</title>
<path fill="none" stroke="black" d="M124.217,-265.241C124.346,-254.897 124.513,-241.541 124.66,-229.821"/>
<polygon fill="black" stroke="black" points="128.162,-229.693 124.787,-219.65 121.162,-229.606 128.162,-229.693"/>
<text text-anchor="middle" x="213.5" y="-240.4" font-family="Courier,monospace" font-weight="bold" font-size="9.00"> HTTP GET /api/v1/demarrerJeu/Toto</text>
</g>
<!-- routeurNote -->
<g id="node6" class="node"><title>routeurNote</title>
<polygon fill="yellow" stroke="black" points="268.5,-219.6 189.5,-219.6 189.5,-183.6 274.5,-183.6 274.5,-213.6 268.5,-219.6"/>
<polyline fill="none" stroke="black" points="268.5,-219.6 268.5,-213.6 "/>
<polyline fill="none" stroke="black" points="274.5,-213.6 268.5,-213.6 "/>
<text text-anchor="middle" x="232" y="-204.4" font-family="Helvetica,sans-Serif" font-style="oblique" font-size="9.00">Routeur Express</text>
<text text-anchor="middle" x="232" y="-194.4" font-family="Helvetica,sans-Serif" font-style="oblique" font-size="9.00">(Node)</text>
</g>
<!-- routeur&#45;&gt;routeurNote -->
<g id="edge2" class="edge"><title>routeur&#45;&gt;routeurNote</title>
<path fill="none" stroke="black" stroke-dasharray="5,2" d="M153.84,-201.6C165.645,-201.6 177.451,-201.6 189.256,-201.6"/>
</g>
<!-- controleur -->
<g id="node9" class="node"><title>controleur</title>
<polygon fill="lightyellow" stroke="black" points="161.5,-111.6 88.5,-111.6 88.5,-75.6 161.5,-75.6 161.5,-111.6"/>
<text text-anchor="start" x="101" y="-92.4" font-family="Helvetica,sans-Serif" font-weight="bold" font-size="9.00">:JeuDeDes</text>
</g>
<!-- routeur&#45;&gt;controleur -->
<g id="edge4" class="edge"><title>routeur&#45;&gt;controleur</title>
<path fill="none" stroke="black" d="M125,-183.569C125,-166.978 125,-141.483 125,-122.031"/>
<polygon fill="black" stroke="black" points="128.5,-121.941 125,-111.941 121.5,-121.941 128.5,-121.941"/>
<polygon fill="yellow" stroke="none" points="13,-150.569 13,-165.569 134,-165.569 134,-150.569 13,-150.569"/>
<text text-anchor="start" x="15" y="-155.869" font-family="Helvetica,sans-Serif" font-style="oblique" font-size="9.00">Opération système (du DSS)</text>
<text text-anchor="start" x="138" y="-156.569" font-family="Courier,monospace" font-weight="bold" font-size="10.00">demarrerJeu(nom)</text>
</g>
<!-- c11 -->
<g id="node4" class="node"><title>c11</title>
<polygon fill="none" stroke="none" points="73,-301.6 19,-301.6 19,-265.6 73,-265.6 73,-301.6"/>
</g>
<!-- c10 -->
<g id="node5" class="node"><title>c10</title>
<polygon fill="none" stroke="none" points="78.5,-219.6 19.5,-219.6 19.5,-183.6 78.5,-183.6 78.5,-219.6"/>
<text text-anchor="middle" x="49" y="-199.4" font-family="Helvetica,sans-Serif" font-size="9.00"> &#160;&#160;&#160;&#160;&#160;&#160;&#160;&#160;&#160;&#160;&#160;&#160;&#160;&#160;&#160;&#160;&#160;&#160;</text>
</g>
<!-- domain -->
<g id="node7" class="node"><title>domain</title>
<ellipse fill="none" stroke="none" cx="125" cy="-17.8" rx="1.8" ry="1.8"/>
</g>
<!-- controleurNote -->
<g id="node8" class="node"><title>controleurNote</title>
<polygon fill="yellow" stroke="black" points="249,-111.6 197,-111.6 197,-75.6 255,-75.6 255,-105.6 249,-111.6"/>
<polyline fill="none" stroke="black" points="249,-111.6 249,-105.6 "/>
<polyline fill="none" stroke="black" points="255,-105.6 249,-105.6 "/>
<text text-anchor="middle" x="226" y="-91.4" font-family="Helvetica,sans-Serif" font-style="oblique" font-size="9.00">contrôleur</text>
</g>
<!-- controleur&#45;&gt;domain -->
<g id="edge6" class="edge"><title>controleur&#45;&gt;domain</title>
<path fill="none" stroke="black" d="M125,-75.4833C125,-61.437 125,-41.9608 125,-29.8823"/>
<polygon fill="black" stroke="black" points="128.5,-29.6802 125,-19.6802 121.5,-29.6803 128.5,-29.6802"/>
<text text-anchor="middle" x="165" y="-50.4" font-family="Helvetica,sans-Serif" font-size="9.00"> ... (selon la logique</text>
<text text-anchor="middle" x="165" y="-40.4" font-family="Helvetica,sans-Serif" font-size="9.00">du domaine)</text>
</g>
<!-- controleur&#45;&gt;controleurNote -->
<g id="edge3" class="edge"><title>controleur&#45;&gt;controleurNote</title>
<path fill="none" stroke="black" stroke-dasharray="5,2" d="M161.691,-93.6C173.414,-93.6 185.137,-93.6 196.86,-93.6"/>
</g>
<!-- filler6 -->
<g id="node10" class="node"><title>filler6</title>
<polygon fill="none" stroke="none" points="70,-111.6 16,-111.6 16,-75.6 70,-75.6 70,-111.6"/>
</g>
</g>
</svg>
