<?xml version="1.0" encoding="UTF-8" standalone="no"?>
<!DOCTYPE svg PUBLIC "-//W3C//DTD SVG 1.1//EN"
 "http://www.w3.org/Graphics/SVG/1.1/DTD/svg11.dtd">
<!-- Generated by graphviz version 2.47.1 (20210417.1919)
 -->
<!-- Title: foo Pages: 1 -->
<svg width="511pt" height="366pt"
 viewBox="0.00 0.00 511.00 366.00" xmlns="http://www.w3.org/2000/svg" xmlns:xlink="http://www.w3.org/1999/xlink">
<g id="graph0" class="graph" transform="scale(1 1) rotate(0) translate(4 362)">
<title>foo</title>
<polygon fill="white" stroke="transparent" points="-4,4 -4,-362 507,-362 507,4 -4,4"/>
<text text-anchor="middle" x="251.5" y="-334.8" font-family="Arial" font-size="24.00">Dépendences (préalables) des cas d&#39;utilisation</text>
<!-- CU01 -->
<g id="node1" class="node">
<title>CU01</title>
<ellipse fill="lightblue" stroke="black" cx="211.27" cy="-18" rx="68.89" ry="18"/>
<text text-anchor="middle" x="211.27" y="-14.9" font-family="Arial" font-size="12.00">CU01 Gérer cours</text>
</g>
<!-- CU02 -->
<g id="node2" class="node">
<title>CU02</title>
<ellipse fill="lightblue" stroke="black" cx="211.27" cy="-90" rx="82.48" ry="18"/>
<text text-anchor="middle" x="211.27" y="-86.9" font-family="Arial" font-size="12.00">CU02 Gérer questions</text>
</g>
<!-- CU02&#45;&gt;CU01 -->
<g id="edge8" class="edge">
<title>CU02&#45;&gt;CU01</title>
<path fill="none" stroke="black" d="M211.27,-71.7C211.27,-63.98 211.27,-54.71 211.27,-46.11"/>
<polygon fill="black" stroke="black" points="214.77,-46.1 211.27,-36.1 207.77,-46.1 214.77,-46.1"/>
</g>
<!-- CU03 -->
<g id="node3" class="node">
<title>CU03</title>
<ellipse fill="lightblue" stroke="black" cx="387.27" cy="-90" rx="75.2" ry="18"/>
<text text-anchor="middle" x="387.27" y="-86.9" font-family="Arial" font-size="12.00">CU03 Gérer devoirs</text>
</g>
<!-- CU03&#45;&gt;CU01 -->
<g id="edge3" class="edge">
<title>CU03&#45;&gt;CU01</title>
<path fill="none" stroke="black" d="M349.95,-74.15C322.75,-63.34 285.76,-48.62 256.82,-37.12"/>
<polygon fill="black" stroke="black" points="257.93,-33.79 247.34,-33.35 255.34,-40.29 257.93,-33.79"/>
</g>
<!-- CU04 -->
<g id="node4" class="node">
<title>CU04</title>
<ellipse fill="lightblue" stroke="black" cx="387.27" cy="-234" rx="87.33" ry="18"/>
<text text-anchor="start" x="324.27" y="-231.9" font-family="Arial" font-weight="bold" font-size="12.00">*CU04 Corriger devoir</text>
</g>
<!-- CU07 -->
<g id="node7" class="node">
<title>CU07</title>
<ellipse fill="lightgreen" stroke="black" cx="387.27" cy="-162" rx="82.48" ry="18"/>
<text text-anchor="middle" x="387.27" y="-158.9" font-family="Arial" font-size="12.00">CU07 Remettre devoir</text>
</g>
<!-- CU04&#45;&gt;CU07 -->
<g id="edge1" class="edge">
<title>CU04&#45;&gt;CU07</title>
<path fill="none" stroke="black" d="M387.27,-215.7C387.27,-207.98 387.27,-198.71 387.27,-190.11"/>
<polygon fill="black" stroke="black" points="390.77,-190.1 387.27,-180.1 383.77,-190.1 390.77,-190.1"/>
</g>
<!-- CU05 -->
<g id="node5" class="node">
<title>CU05</title>
<ellipse fill="lightblue" stroke="black" cx="137.27" cy="-162" rx="98.49" ry="18"/>
<text text-anchor="middle" x="137.27" y="-158.9" font-family="Arial" font-size="12.00">CU05 Gérer questionnaires</text>
</g>
<!-- CU05&#45;&gt;CU01 -->
<g id="edge6" class="edge">
<title>CU05&#45;&gt;CU01</title>
<path fill="none" stroke="black" d="M127.45,-143.79C118.14,-124.97 107.34,-94.5 120.27,-72 129.18,-56.5 144.57,-45.1 160.18,-36.94"/>
<polygon fill="black" stroke="black" points="161.87,-40.01 169.35,-32.51 158.82,-33.71 161.87,-40.01"/>
</g>
<!-- CU05&#45;&gt;CU02 -->
<g id="edge7" class="edge">
<title>CU05&#45;&gt;CU02</title>
<path fill="none" stroke="black" d="M155.19,-144.05C164.46,-135.28 175.93,-124.43 186.08,-114.83"/>
<polygon fill="black" stroke="black" points="188.66,-117.2 193.52,-107.79 183.85,-112.12 188.66,-117.2"/>
</g>
<!-- CU06 -->
<g id="node6" class="node">
<title>CU06</title>
<ellipse fill="lightblue" stroke="black" cx="137.27" cy="-306" rx="102.61" ry="18"/>
<text text-anchor="middle" x="137.27" y="-302.9" font-family="Arial" font-size="12.00">CU06 Corriger questionnaire</text>
</g>
<!-- CU08 -->
<g id="node8" class="node">
<title>CU08</title>
<ellipse fill="lightgreen" stroke="black" cx="137.27" cy="-234" rx="108.92" ry="18"/>
<text text-anchor="start" x="56.77" y="-231.9" font-family="Arial" font-weight="bold" font-size="12.00">*CU08 Passer questionnaire</text>
</g>
<!-- CU06&#45;&gt;CU08 -->
<g id="edge4" class="edge">
<title>CU06&#45;&gt;CU08</title>
<path fill="none" stroke="black" d="M137.27,-287.7C137.27,-279.98 137.27,-270.71 137.27,-262.11"/>
<polygon fill="black" stroke="black" points="140.77,-262.1 137.27,-252.1 133.77,-262.1 140.77,-262.1"/>
</g>
<!-- CU07&#45;&gt;CU03 -->
<g id="edge2" class="edge">
<title>CU07&#45;&gt;CU03</title>
<path fill="none" stroke="black" d="M387.27,-143.7C387.27,-135.98 387.27,-126.71 387.27,-118.11"/>
<polygon fill="black" stroke="black" points="390.77,-118.1 387.27,-108.1 383.77,-118.1 390.77,-118.1"/>
</g>
<!-- CU08&#45;&gt;CU05 -->
<g id="edge5" class="edge">
<title>CU08&#45;&gt;CU05</title>
<path fill="none" stroke="black" d="M137.27,-215.7C137.27,-207.98 137.27,-198.71 137.27,-190.11"/>
<polygon fill="black" stroke="black" points="140.77,-190.1 137.27,-180.1 133.77,-190.1 140.77,-190.1"/>
</g>
</g>
</svg>
