<?xml version="1.0" encoding="UTF-8" standalone="no"?>
<!DOCTYPE svg PUBLIC "-//W3C//DTD SVG 1.1//EN"
 "http://www.w3.org/Graphics/SVG/1.1/DTD/svg11.dtd">
<!-- Generated by graphviz version 2.47.1 (20210417.1919)
 -->
<!-- Title: foo Pages: 1 -->
<svg width="534pt" height="366pt"
 viewBox="0.00 0.00 534.38 366.00" xmlns="http://www.w3.org/2000/svg" xmlns:xlink="http://www.w3.org/1999/xlink">
<g id="graph0" class="graph" transform="scale(1 1) rotate(0) translate(4 362)">
<title>foo</title>
<polygon fill="white" stroke="transparent" points="-4,4 -4,-362 530.38,-362 530.38,4 -4,4"/>
<text text-anchor="middle" x="263.19" y="-334.8" font-family="Helvetica,sans-Serif" font-size="24.00">Dépendences (préalables) des cas d&#39;utilisation</text>
<!-- CU01 -->
<g id="node1" class="node">
<title>CU01</title>
<ellipse fill="lightblue" stroke="black" cx="208.04" cy="-18" rx="86.38" ry="18"/>
<text text-anchor="middle" x="208.04" y="-14.3" font-family="Helvetica,sans-Serif" font-size="14.00">CU01 Gérer cours</text>
</g>
<!-- CU02 -->
<g id="node2" class="node">
<title>CU02</title>
<ellipse fill="lightblue" stroke="black" cx="208.04" cy="-90" rx="103.18" ry="18"/>
<text text-anchor="middle" x="208.04" y="-86.3" font-family="Helvetica,sans-Serif" font-size="14.00">CU02 Gérer questions</text>
</g>
<!-- CU02&#45;&gt;CU01 -->
<g id="edge8" class="edge">
<title>CU02&#45;&gt;CU01</title>
<path fill="none" stroke="black" d="M208.04,-71.7C208.04,-63.98 208.04,-54.71 208.04,-46.11"/>
<polygon fill="black" stroke="black" points="211.54,-46.1 208.04,-36.1 204.54,-46.1 211.54,-46.1"/>
</g>
<!-- CU03 -->
<g id="node3" class="node">
<title>CU03</title>
<ellipse fill="lightblue" stroke="black" cx="423.04" cy="-90" rx="93.68" ry="18"/>
<text text-anchor="middle" x="423.04" y="-86.3" font-family="Helvetica,sans-Serif" font-size="14.00">CU03 Gérer devoirs</text>
</g>
<!-- CU03&#45;&gt;CU01 -->
<g id="edge3" class="edge">
<title>CU03&#45;&gt;CU01</title>
<path fill="none" stroke="black" d="M377.71,-74.24C344.03,-63.28 297.97,-48.28 262.33,-36.68"/>
<polygon fill="black" stroke="black" points="263.17,-33.27 252.57,-33.5 261,-39.92 263.17,-33.27"/>
</g>
<!-- CU04 -->
<g id="node4" class="node">
<title>CU04</title>
<ellipse fill="lightblue" stroke="black" cx="423.04" cy="-234" rx="98.58" ry="18"/>
<text text-anchor="middle" x="423.04" y="-230.3" font-family="Helvetica,sans-Serif" font-size="14.00">CU04 Corriger devoir</text>
</g>
<!-- CU07 -->
<g id="node7" class="node">
<title>CU07</title>
<ellipse fill="lightgreen" stroke="black" cx="423.04" cy="-162" rx="103.18" ry="18"/>
<text text-anchor="middle" x="423.04" y="-158.3" font-family="Helvetica,sans-Serif" font-size="14.00">CU07 Remettre devoir</text>
</g>
<!-- CU04&#45;&gt;CU07 -->
<g id="edge1" class="edge">
<title>CU04&#45;&gt;CU07</title>
<path fill="none" stroke="black" d="M423.04,-215.7C423.04,-207.98 423.04,-198.71 423.04,-190.11"/>
<polygon fill="black" stroke="black" points="426.54,-190.1 423.04,-180.1 419.54,-190.1 426.54,-190.1"/>
</g>
<!-- CU05 -->
<g id="node5" class="node">
<title>CU05</title>
<ellipse fill="lightblue" stroke="black" cx="128.04" cy="-162" rx="123.48" ry="18"/>
<text text-anchor="middle" x="128.04" y="-158.3" font-family="Helvetica,sans-Serif" font-size="14.00">CU05 Gérer questionnaires</text>
</g>
<!-- CU05&#45;&gt;CU01 -->
<g id="edge6" class="edge">
<title>CU05&#45;&gt;CU01</title>
<path fill="none" stroke="black" d="M113.29,-143.93C99.03,-125.25 81.55,-94.89 96.04,-72 106.72,-55.13 124.38,-43.53 142.55,-35.59"/>
<polygon fill="black" stroke="black" points="144.1,-38.74 152.07,-31.76 141.48,-32.24 144.1,-38.74"/>
</g>
<!-- CU05&#45;&gt;CU02 -->
<g id="edge7" class="edge">
<title>CU05&#45;&gt;CU02</title>
<path fill="none" stroke="black" d="M147.4,-144.05C157.53,-135.2 170.07,-124.22 181.13,-114.55"/>
<polygon fill="black" stroke="black" points="183.63,-117.01 188.85,-107.79 179.02,-111.74 183.63,-117.01"/>
</g>
<!-- CU06 -->
<g id="node6" class="node">
<title>CU06</title>
<ellipse fill="lightblue" stroke="black" cx="128.04" cy="-306" rx="128.08" ry="18"/>
<text text-anchor="middle" x="128.04" y="-302.3" font-family="Helvetica,sans-Serif" font-size="14.00">CU06 Corriger questionnaire</text>
</g>
<!-- CU08 -->
<g id="node8" class="node">
<title>CU08</title>
<ellipse fill="lightgreen" stroke="black" cx="128.04" cy="-234" rx="124.28" ry="18"/>
<text text-anchor="middle" x="128.04" y="-230.3" font-family="Helvetica,sans-Serif" font-size="14.00">CU08 Passer questionnaire</text>
</g>
<!-- CU06&#45;&gt;CU08 -->
<g id="edge4" class="edge">
<title>CU06&#45;&gt;CU08</title>
<path fill="none" stroke="black" d="M128.04,-287.7C128.04,-279.98 128.04,-270.71 128.04,-262.11"/>
<polygon fill="black" stroke="black" points="131.54,-262.1 128.04,-252.1 124.54,-262.1 131.54,-262.1"/>
</g>
<!-- CU07&#45;&gt;CU03 -->
<g id="edge2" class="edge">
<title>CU07&#45;&gt;CU03</title>
<path fill="none" stroke="black" d="M423.04,-143.7C423.04,-135.98 423.04,-126.71 423.04,-118.11"/>
<polygon fill="black" stroke="black" points="426.54,-118.1 423.04,-108.1 419.54,-118.1 426.54,-118.1"/>
</g>
<!-- CU08&#45;&gt;CU05 -->
<g id="edge5" class="edge">
<title>CU08&#45;&gt;CU05</title>
<path fill="none" stroke="black" d="M128.04,-215.7C128.04,-207.98 128.04,-198.71 128.04,-190.11"/>
<polygon fill="black" stroke="black" points="131.54,-190.1 128.04,-180.1 124.54,-190.1 131.54,-190.1"/>
</g>
</g>
</svg>
